<svg xmlns="http://www.w3.org/2000/svg" width="1064" height="532" fill="none"><g clip-path="url(#a)"><rect width="1064" height="532" fill="#09021D" fill-opacity=".5" rx="16"/><g opacity=".7"><circle cx="28" cy="26" r="6" fill="#0C0227"/><circle cx="28" cy="26" r="5.5" stroke="#fff" stroke-opacity=".09"/><circle cx="48" cy="26" r="6" fill="#0C0227"/><circle cx="48" cy="26" r="5.5" stroke="#fff" stroke-opacity=".09"/><circle cx="68" cy="26" r="6" fill="#0C0227"/><circle cx="68" cy="26" r="5.5" stroke="#fff" stroke-opacity=".09"/></g><path fill="#fff" fill-opacity=".2" d="M28.492 81H27.12V70.64h3.668c2.198 0 3.29 1.498 3.29 2.996 0 1.246-.742 2.492-2.254 2.884L34.442 81h-1.554l-2.506-4.354h-1.89V81zm2.282-9.156h-2.282v3.626h2.282c1.274 0 1.904-.91 1.904-1.806 0-.91-.63-1.82-1.904-1.82zm7.814 9.296c-2.38 0-3.654-1.876-3.654-3.85 0-1.974 1.274-3.85 3.654-3.85s3.654 1.876 3.654 3.85c0 1.974-1.274 3.85-3.654 3.85zm0-1.162c1.498 0 2.296-1.302 2.296-2.688 0-1.386-.798-2.688-2.296-2.688-1.498 0-2.296 1.302-2.296 2.688 0 1.386.798 2.688 2.296 2.688zm8.354 1.162c-2.436 0-3.654-1.946-3.654-3.85 0-1.89 1.204-3.85 3.654-3.85 2.968 0 3.248 2.66 3.248 2.66h-1.288s-.238-1.512-1.96-1.512c-1.554 0-2.338 1.302-2.338 2.702s.784 2.702 2.338 2.702c1.722 0 1.96-1.512 1.96-1.512h1.288s-.28 2.66-3.248 2.66zm5.982-.14h-1.33V70.36h1.33v6.188l2.954-2.968h1.736l-3.416 3.374L57.684 81H55.99l-3.066-3.57V81zm8.481.14c-2.422 0-3.514-1.96-3.514-3.85 0-1.876 1.078-3.85 3.458-3.85 1.89 0 3.248 1.302 3.248 3.864v.392h-5.362c.07 1.274.854 2.31 2.17 2.31 1.512 0 1.862-1.26 1.862-1.26h1.246s-.42 2.394-3.108 2.394zm-2.156-4.48h4.046c-.07-1.442-.966-2.086-1.946-2.086-1.176 0-1.974.826-2.1 2.086zm9.616 4.48c-1.526 0-2.31-.826-2.31-2.24v-4.228h-1.33V73.58h1.33v-1.862h1.33v1.862h1.806v1.092h-1.806V78.9c0 .756.42 1.078 1.204 1.078.406 0 .868-.084.868-.084v1.134s-.504.112-1.092.112zm4.994 0c-2.828 0-2.996-2.38-2.996-2.38h1.344s.14 1.246 1.68 1.246c.882 0 1.386-.476 1.386-1.092 0-.546-.392-.84-1.106-1.008l-1.008-.238c-1.134-.266-2.142-.812-2.142-2.058 0-1.274 1.036-2.17 2.576-2.17 2.562 0 2.758 2.156 2.758 2.156h-1.288s-.14-1.05-1.456-1.05c-.896 0-1.288.49-1.288.98 0 .476.42.756 1.036.896l1.022.238c1.26.294 2.198.924 2.198 2.198 0 1.246-.994 2.282-2.716 2.282zm6.917-7.7c1.4 0 2.072.798 2.394 1.316h.084V73.58h1.33V81h-1.33v-1.176h-.084c-.322.532-.994 1.316-2.394 1.316-2.254 0-3.36-1.946-3.36-3.85 0-1.904 1.106-3.85 3.36-3.85zM81 74.574c-1.498 0-2.24 1.358-2.24 2.716s.742 2.716 2.24 2.716c1.484 0 2.226-1.358 2.226-2.716s-.742-2.716-2.226-2.716zM87.448 81h-1.33l.014-10.64h1.316V81zm4.913.14c-2.422 0-3.514-1.96-3.514-3.85 0-1.876 1.078-3.85 3.458-3.85 1.89 0 3.248 1.302 3.248 3.864v.392H90.19c.07 1.274.854 2.31 2.17 2.31 1.512 0 1.862-1.26 1.862-1.26h1.246s-.42 2.394-3.108 2.394zm-2.156-4.48h4.046c-.07-1.442-.966-2.086-1.946-2.086-1.176 0-1.974.826-2.1 2.086zm9.319 4.48c-2.828 0-2.996-2.38-2.996-2.38h1.344s.14 1.246 1.68 1.246c.882 0 1.386-.476 1.386-1.092 0-.546-.392-.84-1.106-1.008l-1.008-.238c-1.134-.266-2.142-.812-2.142-2.058 0-1.274 1.036-2.17 2.576-2.17 2.562 0 2.758 2.156 2.758 2.156h-1.288s-.14-1.05-1.456-1.05c-.896 0-1.288.49-1.288.98 0 .476.42.756 1.036.896l1.022.238c1.26.294 2.198.924 2.198 2.198 0 1.246-.994 2.282-2.716 2.282zm93.562 70.08c-5.258 0-7.986-4.202-7.986-8.382 0-4.136 2.728-8.338 7.986-8.338 5.28 0 8.008 4.202 8.008 8.338 0 4.18-2.728 8.382-8.008 8.382zm0-2.354c3.498 0 5.368-2.948 5.368-6.028 0-3.036-1.87-5.984-5.368-5.984-3.476 0-5.346 2.948-5.346 5.984 0 3.08 1.87 6.028 5.346 6.028zM209.259 151h-2.662l-4.378-11.66h2.574l3.168 8.734 3.102-8.734h2.596l-4.4 11.66zm10.859.22c-3.916 0-5.676-3.058-5.676-6.05 0-2.948 1.738-6.05 5.566-6.05 3.058 0 5.236 2.09 5.236 6.094v.682h-8.272c.11 1.804 1.232 3.278 3.146 3.278 2.178 0 2.684-1.782 2.684-1.782h2.332s-.66 3.828-5.016 3.828zm-3.124-7.084h5.83c-.11-2.068-1.386-2.992-2.838-2.992-1.65 0-2.816 1.144-2.992 2.992zM229.808 151H227.3v-11.66h2.508v1.54h.088c.462-.902 1.32-1.76 3.124-1.76.55 0 1.012.088 1.012.088v2.42s-.506-.088-1.078-.088c-2.046 0-3.146 1.078-3.146 3.674V151zm12.04 0h-2.662l-4.378-11.66h2.574l3.168 8.734 3.102-8.734h2.596l-4.4 11.66zm7.436-13.662a1.535 1.535 0 0 1-1.562-1.54c0-.858.66-1.54 1.562-1.54s1.584.682 1.584 1.54-.682 1.54-1.584 1.54zM250.56 151h-2.508v-11.66h2.508V151zm8.039.22c-3.916 0-5.676-3.058-5.676-6.05 0-2.948 1.738-6.05 5.566-6.05 3.058 0 5.236 2.09 5.236 6.094v.682h-8.272c.11 1.804 1.232 3.278 3.146 3.278 2.178 0 2.684-1.782 2.684-1.782h2.332s-.66 3.828-5.016 3.828zm-3.124-7.084h5.83c-.11-2.068-1.386-2.992-2.838-2.992-1.65 0-2.816 1.144-2.992 2.992zM270.919 151h-2.684l-3.718-11.66h2.53l2.552 8.448 2.684-8.448h2.332l2.684 8.404 2.552-8.404h2.552l-3.74 11.66h-2.662l-2.53-7.986-2.552 7.986z" opacity=".7"/><path fill="#fff" fill-opacity=".12" d="M0 49h1064v1H0z" opacity=".7"/><g opacity=".7"><rect width="146" height="37" x="11" y="107" fill="#0E0529" rx="6"/><circle cx="30" cy="125" r="10" fill="#fff" fill-opacity=".07"/><rect width="65" height="6" x="46" y="122" fill="#fff" fill-opacity=".07" rx="3"/></g><g opacity=".7"><rect width="257" height="92" x="184" y="173" fill="#0E0529" rx="6"/><path fill="#fff" fill-opacity=".2" d="M205.464 200h-3.504v-8.88h3.42c1.692 0 2.712 1.032 2.712 2.232 0 1.32-.912 1.836-1.26 1.968v.072c.576.18 1.596.732 1.596 2.112 0 1.236-.84 2.496-2.964 2.496zm-.132-7.86h-2.196v2.832h2.196c1.14 0 1.608-.708 1.608-1.416s-.468-1.416-1.608-1.416zm.096 3.78h-2.292v3.06h2.292c1.308 0 1.824-.768 1.824-1.536 0-.756-.516-1.524-1.824-1.524zm7.258-2.4c1.2 0 1.776.684 2.052 1.128h.072v-1.008h1.14V200h-1.14v-1.008h-.072c-.276.456-.852 1.128-2.052 1.128-1.932 0-2.88-1.668-2.88-3.3s.948-3.3 2.88-3.3zm.192.972c-1.284 0-1.92 1.164-1.92 2.328s.636 2.328 1.92 2.328c1.272 0 1.908-1.164 1.908-2.328s-.636-2.328-1.908-2.328zm6.007 5.508h-1.14l.012-9.12h1.128V200zm4.559-6.48c1.2 0 1.776.684 2.052 1.128h.072v-1.008h1.14V200h-1.14v-1.008h-.072c-.276.456-.852 1.128-2.052 1.128-1.932 0-2.88-1.668-2.88-3.3s.948-3.3 2.88-3.3zm.192.972c-1.284 0-1.92 1.164-1.92 2.328s.636 2.328 1.92 2.328c1.272 0 1.908-1.164 1.908-2.328s-.636-2.328-1.908-2.328zm5.887 5.508h-1.14v-6.36h1.14v.924h.072a1.951 1.951 0 0 1 1.788-1.044c1.392 0 2.196 1.044 2.196 2.388V200h-1.14v-4.02c0-.84-.48-1.476-1.38-1.476-1.08 0-1.536.924-1.536 1.908V200zm8.751.12c-2.088 0-3.132-1.668-3.132-3.3 0-1.62 1.032-3.3 3.132-3.3 2.544 0 2.784 2.28 2.784 2.28h-1.104s-.204-1.296-1.68-1.296c-1.332 0-2.004 1.116-2.004 2.316 0 1.2.672 2.316 2.004 2.316a1.61 1.61 0 0 0 1.68-1.296h1.104s-.24 2.28-2.784 2.28zm7.239 0c-2.076 0-3.012-1.68-3.012-3.3 0-1.608.924-3.3 2.964-3.3 1.62 0 2.784 1.116 2.784 3.312v.336h-4.596c.06 1.092.732 1.98 1.86 1.98 1.296 0 1.596-1.08 1.596-1.08h1.068s-.36 2.052-2.664 2.052zm-1.848-3.84h3.468c-.06-1.236-.828-1.788-1.668-1.788-1.008 0-1.692.708-1.8 1.788z"/><rect width="69" height="5" x="203" y="237" fill="#fff" fill-opacity=".07" rx="2.5"/><rect width="42" height="11" x="203" y="215" fill="#fff" fill-opacity=".07" rx="5.5"/><circle cx="421.5" cy="194.5" r="8.5" fill="#fff" fill-opacity=".07"/></g><rect width="65" height="5" x="926" y="72" fill="#fff" fill-opacity=".07" opacity=".7" rx="2.5"/><g clip-path="url(#b)" opacity=".7"><rect width="807" height="405" x="184" y="280" fill="#0E0529" rx="6"/><path fill="#fff" fill-opacity=".2" d="M206.61 317h-1.47v-9.81h-3.465v-1.29h8.4v1.29h-3.465V317zm5.116 0h-1.425v-7.95h1.425v.99h.06c.33-.6.945-1.14 2.145-1.14.345 0 .675.045.675.045v1.365s-.375-.045-.72-.045c-1.38 0-2.16.735-2.16 2.52V317zm6.849-8.1c1.5 0 2.22.855 2.565 1.41h.09v-1.26h1.425V317h-1.425v-1.26h-.09c-.345.57-1.065 1.41-2.565 1.41-2.415 0-3.6-2.085-3.6-4.125s1.185-4.125 3.6-4.125zm.24 1.215c-1.605 0-2.4 1.455-2.4 2.91s.795 2.91 2.4 2.91c1.59 0 2.385-1.455 2.385-2.91s-.795-2.91-2.385-2.91zm6.909 6.885h-1.425v-7.95h1.425v1.155h.09c.195-.36.81-1.305 2.235-1.305 1.74 0 2.745 1.305 2.745 2.985V317h-1.425v-5.025c0-1.05-.6-1.845-1.725-1.845-1.35 0-1.92 1.155-1.92 2.385V317zm9.633.15c-3.03 0-3.21-2.55-3.21-2.55h1.44s.15 1.335 1.8 1.335c.945 0 1.485-.51 1.485-1.17 0-.585-.42-.9-1.185-1.08l-1.08-.255c-1.215-.285-2.295-.87-2.295-2.205 0-1.365 1.11-2.325 2.76-2.325 2.745 0 2.955 2.31 2.955 2.31h-1.38s-.15-1.125-1.56-1.125c-.96 0-1.38.525-1.38 1.05 0 .51.45.81 1.11.96l1.095.255c1.35.315 2.355.99 2.355 2.355 0 1.335-1.065 2.445-2.91 2.445zm7.561-8.25c1.5 0 2.22.855 2.565 1.41h.09v-1.26h1.425V317h-1.425v-1.26h-.09c-.345.57-1.065 1.41-2.565 1.41-2.415 0-3.6-2.085-3.6-4.125s1.185-4.125 3.6-4.125zm.24 1.215c-1.605 0-2.4 1.455-2.4 2.91s.795 2.91 2.4 2.91c1.59 0 2.385-1.455 2.385-2.91s-.795-2.91-2.385-2.91zm9.249 7.035c-2.61 0-3.915-2.085-3.915-4.125 0-2.025 1.29-4.125 3.915-4.125 3.18 0 3.48 2.85 3.48 2.85h-1.38s-.255-1.62-2.1-1.62c-1.665 0-2.505 1.395-2.505 2.895s.84 2.895 2.505 2.895c1.845 0 2.1-1.62 2.1-1.62h1.38s-.3 2.85-3.48 2.85zm8.359 0c-1.635 0-2.475-.885-2.475-2.4v-4.53h-1.425v-1.17h1.425v-1.995h1.425v1.995h1.935v1.17h-1.935v4.53c0 .81.45 1.155 1.29 1.155.435 0 .93-.09.93-.09v1.215s-.54.12-1.17.12zm3.521-9.615c-.54 0-.93-.42-.93-.915 0-.51.39-.93.93-.93.525 0 .93.42.93.93s-.405.915-.93.915zm.72 9.465h-1.425v-7.95h1.425V317zm5.62.15c-2.55 0-3.915-2.01-3.915-4.125s1.365-4.125 3.915-4.125 3.915 2.01 3.915 4.125-1.365 4.125-3.915 4.125zm0-1.245c1.605 0 2.46-1.395 2.46-2.88 0-1.485-.855-2.88-2.46-2.88s-2.46 1.395-2.46 2.88c0 1.485.855 2.88 2.46 2.88zm6.834 1.095h-1.425v-7.95h1.425v1.155h.09c.195-.36.81-1.305 2.235-1.305 1.74 0 2.745 1.305 2.745 2.985V317h-1.425v-5.025c0-1.05-.6-1.845-1.725-1.845-1.35 0-1.92 1.155-1.92 2.385V317z"/><rect width="195" height="28" x="201.5" y="350.5" stroke="#fff" stroke-opacity=".07" rx="7.5"/><rect width="58" height="23" x="204" y="353" fill="#0D0425" rx="6"/><rect width="57" height="22" x="204.5" y="353.5" stroke="#fff" stroke-opacity=".07" rx="5.5"/><rect width="38" height="5" x="214" y="362" fill="#fff" fill-opacity=".08" rx="2.5"/><rect width="38" height="5" x="278" y="362" fill="#fff" fill-opacity=".07" rx="2.5"/><rect width="38" height="5" x="344" y="362" fill="#fff" fill-opacity=".07" rx="2.5"/><rect width="57" height="22" x="915.5" y="300.5" stroke="#fff" stroke-opacity=".07" rx="5.5"/><rect width="25" height="5" x="925" y="309" fill="#fff" fill-opacity=".08" rx="2.5"/><rect width="155" height="26" x="820.5" y="352.5" stroke="#fff" stroke-opacity=".07" rx="7.5"/><rect width="38" height="5" x="833" y="363" fill="#fff" fill-opacity=".07" rx="2.5"/><rect width="76" height="5" x="292" y="311" fill="#fff" fill-opacity=".07" rx="2.5"/><rect width="27" height="5" x="196" y="399" fill="#fff" fill-opacity=".07" rx="2.5"/><rect width="274" height="5" x="278" y="430" fill="#fff" fill-opacity=".07" rx="2.5"/><rect width="274" height="5" x="278" y="464" fill="#fff" fill-opacity=".07" rx="2.5"/><rect width="274" height="5" x="278" y="498" fill="#fff" fill-opacity=".07" rx="2.5"/><rect width="54" height="12" x="196" y="427" fill="#fff" fill-opacity=".04" rx="3"/><rect width="40" height="13" x="580.5" y="425.5" stroke="#fff" stroke-opacity=".07" rx="3.5"/><rect width="41" height="14" x="686" y="425" fill="#fff" fill-opacity=".04" rx="3"/><rect width="41" height="14" x="788" y="425" fill="#1C1336" rx="6"/><rect width="41" height="14" x="788" y="493" fill="#1C1336" rx="6"/><rect width="28" height="14" x="788" y="459" fill="#fff" fill-opacity=".04" rx="7"/><rect width="31" height="14" x="788" y="525" fill="#1C1336" rx="6"/><rect width="40" height="13" x="686.5" y="459.5" stroke="#fff" stroke-opacity=".07" rx="3.5"/><rect width="40" height="13" x="686.5" y="525.5" stroke="#fff" stroke-opacity=".07" rx="3.5"/><rect width="91" height="13" x="580.5" y="459.5" stroke="#fff" stroke-opacity=".07" rx="3.5"/><rect width="91" height="13" x="580.5" y="493.5" stroke="#fff" stroke-opacity=".07" rx="3.5"/><rect width="91" height="13" x="580.5" y="525.5" stroke="#fff" stroke-opacity=".07" rx="3.5"/><rect width="42" height="12" x="196" y="461" fill="#fff" fill-opacity=".04" rx="3"/><rect width="54" height="12" x="196" y="495" fill="#fff" fill-opacity=".04" rx="3"/><rect width="54" height="12" x="196" y="529" fill="#fff" fill-opacity=".04" rx="3"/><rect width="27" height="5" x="278" y="399" fill="#fff" fill-opacity=".07" rx="2.5"/><rect width="27" height="5" x="579" y="399" fill="#fff" fill-opacity=".07" rx="2.5"/><rect width="54" height="5" x="686" y="399" fill="#fff" fill-opacity=".07" rx="2.5"/><rect width="42" height="5" x="788" y="399" fill="#fff" fill-opacity=".07" rx="2.5"/><rect width="42" height="5" x="867" y="399" fill="#fff" fill-opacity=".07" rx="2.5"/><circle cx="878" cy="431" r="10.5" stroke="#fff" stroke-opacity=".07"/><circle cx="973" cy="432" r="5.5" stroke="#fff" stroke-opacity=".07"/><circle cx="973" cy="466" r="5.5" stroke="#fff" stroke-opacity=".07"/><circle cx="973" cy="500" r="5.5" stroke="#fff" stroke-opacity=".07"/><circle cx="973" cy="534" r="5.5" stroke="#fff" stroke-opacity=".07"/><circle cx="878" cy="466" r="10.5" stroke="#fff" stroke-opacity=".07"/><circle cx="878" cy="500" r="10.5" stroke="#fff" stroke-opacity=".07"/><circle cx="878" cy="532" r="10.5" stroke="#fff" stroke-opacity=".07"/></g><rect width="104" height="28" x="887" y="129" fill="#0E0529" opacity=".7" rx="6"/><circle cx="905" cy="75" r="11" fill="#0E0529" opacity=".7"/><g opacity=".7"><rect width="257" height="92" x="459" y="173" fill="#0E0529" rx="6"/><path fill="#fff" fill-opacity=".2" d="M478.788 200h-1.248l3.132-8.88h1.476l3.144 8.88h-1.248l-.744-2.124h-3.768l-.744 2.124zm2.628-7.536-1.524 4.356h3.048l-1.524-4.356zm8.038 7.656c-2.088 0-3.132-1.668-3.132-3.3 0-1.62 1.032-3.3 3.132-3.3 2.544 0 2.784 2.28 2.784 2.28h-1.104s-.204-1.296-1.68-1.296c-1.332 0-2.004 1.116-2.004 2.316 0 1.2.672 2.316 2.004 2.316a1.61 1.61 0 0 0 1.68-1.296h1.104s-.24 2.28-2.784 2.28zm7.047 0c-1.308 0-1.98-.708-1.98-1.92v-3.624h-1.14v-.936h1.14v-1.596h1.14v1.596h1.548v.936h-1.548v3.624c0 .648.36.924 1.032.924.348 0 .744-.072.744-.072v.972s-.432.096-.936.096zm3.177-7.692a.73.73 0 0 1-.744-.732c0-.408.312-.744.744-.744a.74.74 0 0 1 .744.744.73.73 0 0 1-.744.732zm.576 7.572h-1.14v-6.36h1.14V200zm5.06 0h-1.212l-2.424-6.36h1.188l1.86 4.968 1.824-4.968h1.2l-2.436 6.36zm4.442-7.572a.73.73 0 0 1-.744-.732c0-.408.312-.744.744-.744a.74.74 0 0 1 .744.744.73.73 0 0 1-.744.732zm.576 7.572h-1.14v-6.36h1.14V200zm4.544.12c-1.308 0-1.98-.708-1.98-1.92v-3.624h-1.14v-.936h1.14v-1.596h1.14v1.596h1.548v.936h-1.548v3.624c0 .648.36.924 1.032.924.348 0 .744-.072.744-.072v.972s-.432.096-.936.096zm2.556 2.22a4.46 4.46 0 0 1-.66-.048v-.972s.324.036.624.036c.936 0 1.512-.36 1.92-1.26l-2.46-6.456h1.188l1.836 4.968 1.848-4.968h1.2l-2.46 6.372c-.624 1.608-1.584 2.328-3.036 2.328z"/><rect width="69" height="5" x="478" y="237" fill="#fff" fill-opacity=".07" rx="2.5"/><rect width="42" height="11" x="478" y="215" fill="#fff" fill-opacity=".07" rx="5.5"/><circle cx="696.5" cy="194.5" r="8.5" fill="#fff" fill-opacity=".07"/></g><g opacity=".7"><rect width="257" height="92" x="734" y="173" fill="#0E0529" rx="6"/><path fill="#fff" fill-opacity=".2" d="M754.136 203h-1.176v-8.88h3.144c1.884 0 2.82 1.284 2.82 2.568 0 1.068-.636 2.136-1.932 2.472l2.244 3.84h-1.332l-2.148-3.732h-1.62V203zm1.956-7.848h-1.956v3.108h1.956c1.092 0 1.632-.78 1.632-1.548 0-.78-.54-1.56-1.632-1.56zm7.058 7.968c-2.076 0-3.012-1.68-3.012-3.3 0-1.608.924-3.3 2.964-3.3 1.62 0 2.784 1.116 2.784 3.312v.336h-4.596c.06 1.092.732 1.98 1.86 1.98 1.296 0 1.596-1.08 1.596-1.08h1.068s-.36 2.052-2.664 2.052zm-1.848-3.84h3.468c-.06-1.236-.828-1.788-1.668-1.788-1.008 0-1.692.708-1.8 1.788zm8.773 3.72h-1.236l-2.052-6.36h1.164l1.512 4.824 1.584-4.824h1.08l1.572 4.824 1.524-4.824h1.164l-2.064 6.36h-1.224l-1.512-4.692-1.512 4.692zm10.099-6.48c1.2 0 1.776.684 2.052 1.128h.072v-1.008h1.14V203h-1.14v-1.008h-.072c-.276.456-.852 1.128-2.052 1.128-1.932 0-2.88-1.668-2.88-3.3s.948-3.3 2.88-3.3zm.192.972c-1.284 0-1.92 1.164-1.92 2.328s.636 2.328 1.92 2.328c1.272 0 1.908-1.164 1.908-2.328s-.636-2.328-1.908-2.328zm5.887 5.508h-1.14v-6.36h1.14v.792h.048c.264-.48.756-.912 1.716-.912.276 0 .54.036.54.036v1.092s-.3-.036-.576-.036c-1.104 0-1.728.588-1.728 2.016V203zm5.839.12c-1.932 0-2.88-1.668-2.88-3.3s.948-3.3 2.88-3.3c1.2 0 1.776.684 2.052 1.128h.072v-3.768h1.14V203h-1.14v-1.008h-.072c-.276.456-.852 1.128-2.052 1.128zm.192-.972c1.272 0 1.908-1.164 1.908-2.328s-.636-2.328-1.908-2.328c-1.284 0-1.92 1.164-1.92 2.328s.636 2.328 1.92 2.328zm7.204.972c-2.424 0-2.568-2.04-2.568-2.04h1.152s.12 1.068 1.44 1.068c.756 0 1.188-.408 1.188-.936 0-.468-.336-.72-.948-.864l-.864-.204c-.972-.228-1.836-.696-1.836-1.764 0-1.092.888-1.86 2.208-1.86 2.196 0 2.364 1.848 2.364 1.848h-1.104s-.12-.9-1.248-.9c-.768 0-1.104.42-1.104.84 0 .408.36.648.888.768l.876.204c1.08.252 1.884.792 1.884 1.884 0 1.068-.852 1.956-2.328 1.956z"/><rect width="69" height="5" x="753" y="237" fill="#fff" fill-opacity=".07" rx="2.5"/><rect width="42" height="11" x="753" y="215" fill="#fff" fill-opacity=".07" rx="5.5"/><circle cx="971.5" cy="194.5" r="8.5" fill="#fff" fill-opacity=".07"/></g><g opacity=".7"><g clip-path="url(#c)"><path stroke="#190844" stroke-linecap="round" stroke-linejoin="round" stroke-width="2" d="m147 185 5-5 5 5"/></g><rect width="58" height="6" x="42" y="181" fill="#1C1336" rx="3"/><circle cx="22" cy="183" r="9" fill="#120632"/></g><g opacity=".7"><rect width="58" height="6" x="42" y="237" fill="#1C1336" rx="3"/><circle cx="22" cy="239" r="9" fill="#120632"/></g><g opacity=".7"><rect width="58" height="6" x="42" y="293" fill="#1C1336" rx="3"/><circle cx="22" cy="295" r="9" fill="#120632"/></g><g opacity=".7"><rect width="58" height="6" x="42" y="349" fill="#1C1336" rx="3"/><circle cx="22" cy="351" r="9" fill="#120632"/></g><g opacity=".7"><rect width="58" height="6" x="42" y="405" fill="#1C1336" rx="3"/><circle cx="22" cy="407" r="9" fill="#120632"/></g><g opacity=".7"><rect width="58" height="6" x="42" y="461" fill="#1C1336" rx="3"/><circle cx="22" cy="463" r="9" fill="#120632"/></g><g opacity=".7"><rect width="58" height="6" x="42" y="517" fill="#1C1336" rx="3"/><circle cx="22" cy="519" r="9" fill="#120632"/></g><g opacity=".7"><rect width="37" height="6" x="186" y="114" fill="#1C1336" rx="3"/><rect width="24" height="6" x="240" y="114" fill="#120632" rx="3"/><rect width="24" height="6" x="240" y="114" fill="#1C1336" rx="3"/><g clip-path="url(#d)"><path stroke="#190844" stroke-linecap="round" stroke-linejoin="round" stroke-width="2" d="m230 114.5 2.5 2.5-2.5 2.5"/></g></g><path fill="url(#e)" d="M.5 326h1064v206H.5z"/></g><rect width="1063" height="531" x=".5" y=".5" stroke="url(#f)" stroke-opacity=".12" rx="15.5"/><defs><clipPath id="a"><rect width="1064" height="532" fill="#fff" rx="16"/></clipPath><clipPath id="b"><rect width="807" height="405" x="184" y="280" fill="#fff" rx="6"/></clipPath><clipPath id="c"><path fill="#fff" d="M144 175h16v16h-16z"/></clipPath><clipPath id="d"><path fill="#fff" d="M227 113h8v8h-8z"/></clipPath><linearGradient id="e" x1="532.5" x2="532.5" y1="364.566" y2="523.965" gradientUnits="userSpaceOnUse"><stop stop-color="#070119" stop-opacity="0"/><stop offset="1" stop-color="#070119"/></linearGradient><linearGradient id="f" x1="532" x2="532" y1="0" y2="532" gradientUnits="userSpaceOnUse"><stop stop-color="#fff"/><stop offset="1" stop-color="#fff" stop-opacity="0"/></linearGradient></defs></svg>