<svg xmlns="http://www.w3.org/2000/svg" width="1190" height="613" fill="none"><rect width="1064" height="704.911" x="125" y=".132" fill="#09021D" fill-opacity=".5" rx="16"/><rect width="1063" height="703.911" x="125.5" y=".632" stroke="url(#a)" stroke-opacity=".1" rx="15.5"/><g opacity=".7"><circle cx="153" cy="26.132" r="6" fill="#0C0227"/><circle cx="153" cy="26.132" r="5.5" stroke="#fff" stroke-opacity=".09"/><circle cx="173" cy="26.132" r="6" fill="#0C0227"/><circle cx="173" cy="26.132" r="5.5" stroke="#fff" stroke-opacity=".09"/><circle cx="193" cy="26.132" r="6" fill="#0C0227"/><circle cx="193" cy="26.132" r="5.5" stroke="#fff" stroke-opacity=".09"/></g><path fill="#fff" fill-opacity=".2" d="M153.492 81.132h-1.372v-10.36h3.668c2.198 0 3.29 1.498 3.29 2.996 0 1.246-.742 2.492-2.254 2.884l2.618 4.48h-1.554l-2.506-4.354h-1.89v4.354zm2.282-9.156h-2.282v3.626h2.282c1.274 0 1.904-.91 1.904-1.806 0-.91-.63-1.82-1.904-1.82zm7.814 9.296c-2.38 0-3.654-1.876-3.654-3.85 0-1.974 1.274-3.85 3.654-3.85s3.654 1.876 3.654 3.85c0 1.974-1.274 3.85-3.654 3.85zm0-1.162c1.498 0 2.296-1.302 2.296-2.688 0-1.386-.798-2.688-2.296-2.688-1.498 0-2.296 1.302-2.296 2.688 0 1.386.798 2.688 2.296 2.688zm8.354 1.162c-2.436 0-3.654-1.946-3.654-3.85 0-1.89 1.204-3.85 3.654-3.85 2.968 0 3.248 2.66 3.248 2.66h-1.288s-.238-1.512-1.96-1.512c-1.554 0-2.338 1.302-2.338 2.702s.784 2.702 2.338 2.702c1.722 0 1.96-1.512 1.96-1.512h1.288s-.28 2.66-3.248 2.66zm5.982-.14h-1.33v-10.64h1.33v6.188l2.954-2.968h1.736l-3.416 3.374 3.486 4.046h-1.694l-3.066-3.57v3.57zm8.481.14c-2.422 0-3.514-1.96-3.514-3.85 0-1.876 1.078-3.85 3.458-3.85 1.89 0 3.248 1.302 3.248 3.864v.392h-5.362c.07 1.274.854 2.31 2.17 2.31 1.512 0 1.862-1.26 1.862-1.26h1.246s-.42 2.394-3.108 2.394zm-2.156-4.48h4.046c-.07-1.442-.966-2.086-1.946-2.086-1.176 0-1.974.826-2.1 2.086zm9.616 4.48c-1.526 0-2.31-.826-2.31-2.24v-4.228h-1.33v-1.092h1.33V71.85h1.33v1.862h1.806v1.092h-1.806v4.228c0 .756.42 1.078 1.204 1.078.406 0 .868-.084.868-.084v1.134s-.504.112-1.092.112zm4.994 0c-2.828 0-2.996-2.38-2.996-2.38h1.344s.14 1.246 1.68 1.246c.882 0 1.386-.476 1.386-1.092 0-.546-.392-.84-1.106-1.008l-1.008-.238c-1.134-.266-2.142-.812-2.142-2.058 0-1.274 1.036-2.17 2.576-2.17 2.562 0 2.758 2.156 2.758 2.156h-1.288s-.14-1.05-1.456-1.05c-.896 0-1.288.49-1.288.98 0 .476.42.756 1.036.896l1.022.238c1.26.294 2.198.924 2.198 2.198 0 1.246-.994 2.282-2.716 2.282zm6.917-7.7c1.4 0 2.072.798 2.394 1.316h.084v-1.176h1.33v7.42h-1.33v-1.176h-.084c-.322.532-.994 1.316-2.394 1.316-2.254 0-3.36-1.946-3.36-3.85 0-1.904 1.106-3.85 3.36-3.85zm.224 1.134c-1.498 0-2.24 1.358-2.24 2.716s.742 2.716 2.24 2.716c1.484 0 2.226-1.358 2.226-2.716s-.742-2.716-2.226-2.716zm6.449 6.426h-1.33l.014-10.64h1.316v10.64zm4.912.14c-2.422 0-3.514-1.96-3.514-3.85 0-1.876 1.078-3.85 3.458-3.85 1.89 0 3.248 1.302 3.248 3.864v.392h-5.362c.07 1.274.854 2.31 2.17 2.31 1.512 0 1.862-1.26 1.862-1.26h1.246s-.42 2.394-3.108 2.394zm-2.156-4.48h4.046c-.07-1.442-.966-2.086-1.946-2.086-1.176 0-1.974.826-2.1 2.086zm9.319 4.48c-2.828 0-2.996-2.38-2.996-2.38h1.344s.14 1.246 1.68 1.246c.882 0 1.386-.476 1.386-1.092 0-.546-.392-.84-1.106-1.008l-1.008-.238c-1.134-.266-2.142-.812-2.142-2.058 0-1.274 1.036-2.17 2.576-2.17 2.562 0 2.758 2.156 2.758 2.156h-1.288s-.14-1.05-1.456-1.05c-.896 0-1.288.49-1.288.98 0 .476.42.756 1.036.896l1.022.238c1.26.294 2.198.924 2.198 2.198 0 1.246-.994 2.282-2.716 2.282zm93.562 70.08c-5.258 0-7.986-4.202-7.986-8.382 0-4.136 2.728-8.338 7.986-8.338 5.28 0 8.008 4.202 8.008 8.338 0 4.18-2.728 8.382-8.008 8.382zm0-2.354c3.498 0 5.368-2.948 5.368-6.028 0-3.036-1.87-5.984-5.368-5.984-3.476 0-5.346 2.948-5.346 5.984 0 3.08 1.87 6.028 5.346 6.028zm16.173 2.134h-2.662l-4.378-11.66h2.574l3.168 8.734 3.102-8.734h2.596l-4.4 11.66zm10.859.22c-3.916 0-5.676-3.058-5.676-6.05 0-2.948 1.738-6.05 5.566-6.05 3.058 0 5.236 2.09 5.236 6.094v.682h-8.272c.11 1.804 1.232 3.278 3.146 3.278 2.178 0 2.684-1.782 2.684-1.782h2.332s-.66 3.828-5.016 3.828zm-3.124-7.084h5.83c-.11-2.068-1.386-2.992-2.838-2.992-1.65 0-2.816 1.144-2.992 2.992zm12.814 6.864H352.3v-11.66h2.508v1.54h.088c.462-.902 1.32-1.76 3.124-1.76.55 0 1.012.088 1.012.088v2.42s-.506-.088-1.078-.088c-2.046 0-3.146 1.078-3.146 3.674v5.786zm12.04 0h-2.662l-4.378-11.66h2.574l3.168 8.734 3.102-8.734h2.596l-4.4 11.66zm7.436-13.662a1.535 1.535 0 0 1-1.562-1.54c0-.858.66-1.54 1.562-1.54s1.584.682 1.584 1.54-.682 1.54-1.584 1.54zm1.276 13.662h-2.508v-11.66h2.508v11.66zm8.039.22c-3.916 0-5.676-3.058-5.676-6.05 0-2.948 1.738-6.05 5.566-6.05 3.058 0 5.236 2.09 5.236 6.094v.682h-8.272c.11 1.804 1.232 3.278 3.146 3.278 2.178 0 2.684-1.782 2.684-1.782h2.332s-.66 3.828-5.016 3.828zm-3.124-7.084h5.83c-.11-2.068-1.386-2.992-2.838-2.992-1.65 0-2.816 1.144-2.992 2.992zm15.444 6.864h-2.684l-3.718-11.66h2.53l2.552 8.448 2.684-8.448h2.332l2.684 8.404 2.552-8.404h2.552l-3.74 11.66h-2.662l-2.53-7.986-2.552 7.986z" opacity=".7"/><path fill="#fff" fill-opacity=".08" d="M125 49.132h1064v1H125z" opacity=".7"/><g opacity=".7"><rect width="146" height="37" x="136" y="107.132" fill="#0E0529" rx="6"/><circle cx="155" cy="125.132" r="10" fill="#fff" fill-opacity=".07"/><rect width="65" height="6" x="171" y="122.132" fill="#fff" fill-opacity=".07" rx="3"/></g><g opacity=".7"><rect width="257" height="92" x="309" y="173.132" fill="#0E0529" rx="6"/><path fill="#fff" fill-opacity=".2" d="M330.464 200.132h-3.504v-8.88h3.42c1.692 0 2.712 1.032 2.712 2.232 0 1.32-.912 1.836-1.26 1.968v.072c.576.18 1.596.732 1.596 2.112 0 1.236-.84 2.496-2.964 2.496zm-.132-7.86h-2.196v2.832h2.196c1.14 0 1.608-.708 1.608-1.416s-.468-1.416-1.608-1.416zm.096 3.78h-2.292v3.06h2.292c1.308 0 1.824-.768 1.824-1.536 0-.756-.516-1.524-1.824-1.524zm7.258-2.4c1.2 0 1.776.684 2.052 1.128h.072v-1.008h1.14v6.36h-1.14v-1.008h-.072c-.276.456-.852 1.128-2.052 1.128-1.932 0-2.88-1.668-2.88-3.3s.948-3.3 2.88-3.3zm.192.972c-1.284 0-1.92 1.164-1.92 2.328s.636 2.328 1.92 2.328c1.272 0 1.908-1.164 1.908-2.328s-.636-2.328-1.908-2.328zm6.007 5.508h-1.14l.012-9.12h1.128v9.12zm4.559-6.48c1.2 0 1.776.684 2.052 1.128h.072v-1.008h1.14v6.36h-1.14v-1.008h-.072c-.276.456-.852 1.128-2.052 1.128-1.932 0-2.88-1.668-2.88-3.3s.948-3.3 2.88-3.3zm.192.972c-1.284 0-1.92 1.164-1.92 2.328s.636 2.328 1.92 2.328c1.272 0 1.908-1.164 1.908-2.328s-.636-2.328-1.908-2.328zm5.887 5.508h-1.14v-6.36h1.14v.924h.072a1.951 1.951 0 0 1 1.788-1.044c1.392 0 2.196 1.044 2.196 2.388v4.092h-1.14v-4.02c0-.84-.48-1.476-1.38-1.476-1.08 0-1.536.924-1.536 1.908v3.588zm8.751.12c-2.088 0-3.132-1.668-3.132-3.3 0-1.62 1.032-3.3 3.132-3.3 2.544 0 2.784 2.28 2.784 2.28h-1.104s-.204-1.296-1.68-1.296c-1.332 0-2.004 1.116-2.004 2.316 0 1.2.672 2.316 2.004 2.316a1.61 1.61 0 0 0 1.68-1.296h1.104s-.24 2.28-2.784 2.28zm7.239 0c-2.076 0-3.012-1.68-3.012-3.3 0-1.608.924-3.3 2.964-3.3 1.62 0 2.784 1.116 2.784 3.312v.336h-4.596c.06 1.092.732 1.98 1.86 1.98 1.296 0 1.596-1.08 1.596-1.08h1.068s-.36 2.052-2.664 2.052zm-1.848-3.84h3.468c-.06-1.236-.828-1.788-1.668-1.788-1.008 0-1.692.708-1.8 1.788z"/><rect width="69" height="5" x="328" y="237.132" fill="#fff" fill-opacity=".07" rx="2.5"/><rect width="42" height="11" x="328" y="215.132" fill="#fff" fill-opacity=".07" rx="5.5"/><circle cx="546.5" cy="194.632" r="8.5" fill="#fff" fill-opacity=".07"/></g><rect width="65" height="5" x="1051" y="72.132" fill="#fff" fill-opacity=".07" opacity=".7" rx="2.5"/><g clip-path="url(#b)" opacity=".7"><rect width="807" height="405" x="309" y="280.132" fill="#0E0529" rx="6"/><path fill="#fff" fill-opacity=".2" d="M331.61 317.132h-1.47v-9.81h-3.465v-1.29h8.4v1.29h-3.465v9.81zm5.116 0h-1.425v-7.95h1.425v.99h.06c.33-.6.945-1.14 2.145-1.14.345 0 .675.045.675.045v1.365s-.375-.045-.72-.045c-1.38 0-2.16.735-2.16 2.52v4.215zm6.849-8.1c1.5 0 2.22.855 2.565 1.41h.09v-1.26h1.425v7.95h-1.425v-1.26h-.09c-.345.57-1.065 1.41-2.565 1.41-2.415 0-3.6-2.085-3.6-4.125s1.185-4.125 3.6-4.125zm.24 1.215c-1.605 0-2.4 1.455-2.4 2.91s.795 2.91 2.4 2.91c1.59 0 2.385-1.455 2.385-2.91s-.795-2.91-2.385-2.91zm6.909 6.885h-1.425v-7.95h1.425v1.155h.09c.195-.36.81-1.305 2.235-1.305 1.74 0 2.745 1.305 2.745 2.985v5.115h-1.425v-5.025c0-1.05-.6-1.845-1.725-1.845-1.35 0-1.92 1.155-1.92 2.385v4.485zm9.633.15c-3.03 0-3.21-2.55-3.21-2.55h1.44s.15 1.335 1.8 1.335c.945 0 1.485-.51 1.485-1.17 0-.585-.42-.9-1.185-1.08l-1.08-.255c-1.215-.285-2.295-.87-2.295-2.205 0-1.365 1.11-2.325 2.76-2.325 2.745 0 2.955 2.31 2.955 2.31h-1.38s-.15-1.125-1.56-1.125c-.96 0-1.38.525-1.38 1.05 0 .51.45.81 1.11.96l1.095.255c1.35.315 2.355.99 2.355 2.355 0 1.335-1.065 2.445-2.91 2.445zm7.561-8.25c1.5 0 2.22.855 2.565 1.41h.09v-1.26h1.425v7.95h-1.425v-1.26h-.09c-.345.57-1.065 1.41-2.565 1.41-2.415 0-3.6-2.085-3.6-4.125s1.185-4.125 3.6-4.125zm.24 1.215c-1.605 0-2.4 1.455-2.4 2.91s.795 2.91 2.4 2.91c1.59 0 2.385-1.455 2.385-2.91s-.795-2.91-2.385-2.91zm9.249 7.035c-2.61 0-3.915-2.085-3.915-4.125 0-2.025 1.29-4.125 3.915-4.125 3.18 0 3.48 2.85 3.48 2.85h-1.38s-.255-1.62-2.1-1.62c-1.665 0-2.505 1.395-2.505 2.895s.84 2.895 2.505 2.895c1.845 0 2.1-1.62 2.1-1.62h1.38s-.3 2.85-3.48 2.85zm8.359 0c-1.635 0-2.475-.885-2.475-2.4v-4.53h-1.425v-1.17h1.425v-1.995h1.425v1.995h1.935v1.17h-1.935v4.53c0 .81.45 1.155 1.29 1.155.435 0 .93-.09.93-.09v1.215s-.54.12-1.17.12zm3.521-9.615c-.54 0-.93-.42-.93-.915 0-.51.39-.93.93-.93.525 0 .93.42.93.93s-.405.915-.93.915zm.72 9.465h-1.425v-7.95h1.425v7.95zm5.62.15c-2.55 0-3.915-2.01-3.915-4.125s1.365-4.125 3.915-4.125 3.915 2.01 3.915 4.125-1.365 4.125-3.915 4.125zm0-1.245c1.605 0 2.46-1.395 2.46-2.88 0-1.485-.855-2.88-2.46-2.88s-2.46 1.395-2.46 2.88c0 1.485.855 2.88 2.46 2.88zm6.834 1.095h-1.425v-7.95h1.425v1.155h.09c.195-.36.81-1.305 2.235-1.305 1.74 0 2.745 1.305 2.745 2.985v5.115h-1.425v-5.025c0-1.05-.6-1.845-1.725-1.845-1.35 0-1.92 1.155-1.92 2.385v4.485z"/><rect width="195" height="28" x="326.5" y="350.632" stroke="#fff" stroke-opacity=".07" rx="7.5"/><rect width="58" height="23" x="329" y="353.132" fill="#0D0425" rx="6"/><rect width="57" height="22" x="329.5" y="353.632" stroke="#fff" stroke-opacity=".07" rx="5.5"/><rect width="38" height="5" x="339" y="362.132" fill="#fff" fill-opacity=".08" rx="2.5"/><rect width="38" height="5" x="403" y="362.132" fill="#fff" fill-opacity=".07" rx="2.5"/><rect width="38" height="5" x="469" y="362.132" fill="#fff" fill-opacity=".07" rx="2.5"/><rect width="57" height="22" x="1040.5" y="300.632" stroke="#fff" stroke-opacity=".07" rx="5.5"/><rect width="25" height="5" x="1050" y="309.132" fill="#fff" fill-opacity=".08" rx="2.5"/><rect width="155" height="26" x="945.5" y="352.632" stroke="#fff" stroke-opacity=".07" rx="7.5"/><rect width="38" height="5" x="958" y="363.132" fill="#fff" fill-opacity=".07" rx="2.5"/><rect width="76" height="5" x="417" y="311.132" fill="#fff" fill-opacity=".07" rx="2.5"/><rect width="27" height="5" x="321" y="399.132" fill="#fff" fill-opacity=".07" rx="2.5"/><rect width="274" height="5" x="403" y="430.132" fill="#fff" fill-opacity=".07" rx="2.5"/><rect width="274" height="5" x="403" y="464.132" fill="#fff" fill-opacity=".07" rx="2.5"/><rect width="274" height="5" x="403" y="498.132" fill="#fff" fill-opacity=".07" rx="2.5"/><rect width="274" height="5" x="403" y="532.132" fill="#fff" fill-opacity=".07" rx="2.5"/><rect width="274" height="5" x="403" y="600.132" fill="#fff" fill-opacity=".07" rx="2.5"/><rect width="208" height="5" x="403" y="566.132" fill="#fff" fill-opacity=".07" rx="2.5"/><rect width="54" height="12" x="321" y="427.132" fill="#fff" fill-opacity=".04" rx="3"/><rect width="40" height="13" x="705.5" y="425.632" stroke="#fff" stroke-opacity=".07" rx="3.5"/><rect width="41" height="14" x="811" y="425.132" fill="#fff" fill-opacity=".04" rx="3"/><rect width="41" height="14" x="913" y="425.132" fill="#1C1336" rx="6"/><rect width="41" height="14" x="913" y="493.132" fill="#1C1336" rx="6"/><rect width="28" height="14" x="913" y="459.132" fill="#fff" fill-opacity=".04" rx="7"/><rect width="31" height="14" x="913" y="525.132" fill="#1C1336" rx="6"/><rect width="41" height="14" x="913" y="560.132" fill="#1C1336" rx="6"/><rect width="40" height="13" x="913.5" y="594.632" stroke="#fff" stroke-opacity=".07" rx="6.5"/><rect width="40" height="13" x="811.5" y="459.632" stroke="#fff" stroke-opacity=".07" rx="3.5"/><rect width="40" height="13" x="811.5" y="525.632" stroke="#fff" stroke-opacity=".07" rx="3.5"/><rect width="40" height="13" x="811.5" y="560.632" stroke="#fff" stroke-opacity=".07" rx="3.5"/><rect width="91" height="13" x="705.5" y="459.632" stroke="#fff" stroke-opacity=".07" rx="3.5"/><rect width="91" height="13" x="705.5" y="493.632" stroke="#fff" stroke-opacity=".07" rx="3.5"/><rect width="91" height="13" x="705.5" y="525.632" stroke="#fff" stroke-opacity=".07" rx="3.5"/><rect width="42" height="13" x="705.5" y="560.632" stroke="#fff" stroke-opacity=".07" rx="3.5"/><rect width="85" height="13" x="705.5" y="593.632" stroke="#fff" stroke-opacity=".07" rx="3.5"/><rect width="42" height="12" x="321" y="461.132" fill="#fff" fill-opacity=".04" rx="3"/><rect width="54" height="12" x="321" y="495.132" fill="#fff" fill-opacity=".04" rx="3"/><rect width="54" height="12" x="321" y="529.132" fill="#fff" fill-opacity=".04" rx="3"/><rect width="41" height="12" x="321" y="563.132" fill="#fff" fill-opacity=".04" rx="3"/><rect width="45" height="13" x="639.5" y="561.632" stroke="#fff" stroke-opacity=".07" rx="6.5"/><rect width="41" height="12" x="321" y="597.132" fill="#fff" fill-opacity=".04" rx="3"/><rect width="27" height="5" x="403" y="399.132" fill="#fff" fill-opacity=".07" rx="2.5"/><rect width="27" height="5" x="704" y="399.132" fill="#fff" fill-opacity=".07" rx="2.5"/><rect width="54" height="5" x="811" y="399.132" fill="#fff" fill-opacity=".07" rx="2.5"/><rect width="42" height="5" x="913" y="399.132" fill="#fff" fill-opacity=".07" rx="2.5"/><rect width="42" height="5" x="992" y="399.132" fill="#fff" fill-opacity=".07" rx="2.5"/><circle cx="1003" cy="431.132" r="10.5" stroke="#fff" stroke-opacity=".07"/><circle cx="1098" cy="432.132" r="5.5" stroke="#fff" stroke-opacity=".07"/><circle cx="1098" cy="466.132" r="5.5" stroke="#fff" stroke-opacity=".07"/><circle cx="1098" cy="500.132" r="5.5" stroke="#fff" stroke-opacity=".07"/><circle cx="1098" cy="534.132" r="5.5" stroke="#fff" stroke-opacity=".07"/><circle cx="1098" cy="568.132" r="5.5" stroke="#fff" stroke-opacity=".07"/><circle cx="1098" cy="602.132" r="5.5" stroke="#fff" stroke-opacity=".07"/><circle cx="1003" cy="466.132" r="10.5" stroke="#fff" stroke-opacity=".07"/><circle cx="1003" cy="500.132" r="10.5" stroke="#fff" stroke-opacity=".07"/><circle cx="1003" cy="532.132" r="10.5" stroke="#fff" stroke-opacity=".07"/><circle cx="1003" cy="567.132" r="10.5" stroke="#fff" stroke-opacity=".07"/><circle cx="1003" cy="601.132" r="10.5" stroke="#fff" stroke-opacity=".07"/></g><rect width="104" height="28" x="1012" y="129.132" fill="#0E0529" opacity=".7" rx="6"/><circle cx="1030" cy="75.132" r="11" fill="#0E0529" opacity=".7"/><g opacity=".7"><rect width="257" height="92" x="584" y="173.132" fill="#0E0529" rx="6"/><path fill="#fff" fill-opacity=".2" d="M603.788 200.132h-1.248l3.132-8.88h1.476l3.144 8.88h-1.248l-.744-2.124h-3.768l-.744 2.124zm2.628-7.536-1.524 4.356h3.048l-1.524-4.356zm8.038 7.656c-2.088 0-3.132-1.668-3.132-3.3 0-1.62 1.032-3.3 3.132-3.3 2.544 0 2.784 2.28 2.784 2.28h-1.104s-.204-1.296-1.68-1.296c-1.332 0-2.004 1.116-2.004 2.316 0 1.2.672 2.316 2.004 2.316a1.61 1.61 0 0 0 1.68-1.296h1.104s-.24 2.28-2.784 2.28zm7.047 0c-1.308 0-1.98-.708-1.98-1.92v-3.624h-1.14v-.936h1.14v-1.596h1.14v1.596h1.548v.936h-1.548v3.624c0 .648.36.924 1.032.924.348 0 .744-.072.744-.072v.972s-.432.096-.936.096zm3.177-7.692a.73.73 0 0 1-.744-.732c0-.408.312-.744.744-.744a.74.74 0 0 1 .744.744.73.73 0 0 1-.744.732zm.576 7.572h-1.14v-6.36h1.14v6.36zm5.06 0h-1.212l-2.424-6.36h1.188l1.86 4.968 1.824-4.968h1.2l-2.436 6.36zm4.442-7.572a.73.73 0 0 1-.744-.732c0-.408.312-.744.744-.744a.74.74 0 0 1 .744.744.73.73 0 0 1-.744.732zm.576 7.572h-1.14v-6.36h1.14v6.36zm4.544.12c-1.308 0-1.98-.708-1.98-1.92v-3.624h-1.14v-.936h1.14v-1.596h1.14v1.596h1.548v.936h-1.548v3.624c0 .648.36.924 1.032.924.348 0 .744-.072.744-.072v.972s-.432.096-.936.096zm2.556 2.22a4.46 4.46 0 0 1-.66-.048v-.972s.324.036.624.036c.936 0 1.512-.36 1.92-1.26l-2.46-6.456h1.188l1.836 4.968 1.848-4.968h1.2l-2.46 6.372c-.624 1.608-1.584 2.328-3.036 2.328z"/><rect width="69" height="5" x="603" y="237.132" fill="#fff" fill-opacity=".07" rx="2.5"/><rect width="42" height="11" x="603" y="215.132" fill="#fff" fill-opacity=".07" rx="5.5"/><circle cx="821.5" cy="194.632" r="8.5" fill="#fff" fill-opacity=".07"/></g><g opacity=".7"><rect width="257" height="92" x="859" y="173.132" fill="#0E0529" rx="6"/><path fill="#fff" fill-opacity=".2" d="M879.136 203.132h-1.176v-8.88h3.144c1.884 0 2.82 1.284 2.82 2.568 0 1.068-.636 2.136-1.932 2.472l2.244 3.84h-1.332l-2.148-3.732h-1.62v3.732zm1.956-7.848h-1.956v3.108h1.956c1.092 0 1.632-.78 1.632-1.548 0-.78-.54-1.56-1.632-1.56zm7.058 7.968c-2.076 0-3.012-1.68-3.012-3.3 0-1.608.924-3.3 2.964-3.3 1.62 0 2.784 1.116 2.784 3.312v.336h-4.596c.06 1.092.732 1.98 1.86 1.98 1.296 0 1.596-1.08 1.596-1.08h1.068s-.36 2.052-2.664 2.052zm-1.848-3.84h3.468c-.06-1.236-.828-1.788-1.668-1.788-1.008 0-1.692.708-1.8 1.788zm8.773 3.72h-1.236l-2.052-6.36h1.164l1.512 4.824 1.584-4.824h1.08l1.572 4.824 1.524-4.824h1.164l-2.064 6.36h-1.224l-1.512-4.692-1.512 4.692zm10.099-6.48c1.2 0 1.776.684 2.052 1.128h.072v-1.008h1.14v6.36h-1.14v-1.008h-.072c-.276.456-.852 1.128-2.052 1.128-1.932 0-2.88-1.668-2.88-3.3s.948-3.3 2.88-3.3zm.192.972c-1.284 0-1.92 1.164-1.92 2.328s.636 2.328 1.92 2.328c1.272 0 1.908-1.164 1.908-2.328s-.636-2.328-1.908-2.328zm5.887 5.508h-1.14v-6.36h1.14v.792h.048c.264-.48.756-.912 1.716-.912.276 0 .54.036.54.036v1.092s-.3-.036-.576-.036c-1.104 0-1.728.588-1.728 2.016v3.372zm5.839.12c-1.932 0-2.88-1.668-2.88-3.3s.948-3.3 2.88-3.3c1.2 0 1.776.684 2.052 1.128h.072v-3.768h1.14v9.12h-1.14v-1.008h-.072c-.276.456-.852 1.128-2.052 1.128zm.192-.972c1.272 0 1.908-1.164 1.908-2.328s-.636-2.328-1.908-2.328c-1.284 0-1.92 1.164-1.92 2.328s.636 2.328 1.92 2.328zm7.204.972c-2.424 0-2.568-2.04-2.568-2.04h1.152s.12 1.068 1.44 1.068c.756 0 1.188-.408 1.188-.936 0-.468-.336-.72-.948-.864l-.864-.204c-.972-.228-1.836-.696-1.836-1.764 0-1.092.888-1.86 2.208-1.86 2.196 0 2.364 1.848 2.364 1.848h-1.104s-.12-.9-1.248-.9c-.768 0-1.104.42-1.104.84 0 .408.36.648.888.768l.876.204c1.08.252 1.884.792 1.884 1.884 0 1.068-.852 1.956-2.328 1.956z"/><rect width="69" height="5" x="878" y="237.132" fill="#fff" fill-opacity=".07" rx="2.5"/><rect width="42" height="11" x="878" y="215.132" fill="#fff" fill-opacity=".07" rx="5.5"/><circle cx="1096.5" cy="194.632" r="8.5" fill="#fff" fill-opacity=".07"/></g><g opacity=".7"><g clip-path="url(#c)"><path stroke="#190844" stroke-linecap="round" stroke-linejoin="round" stroke-width="2" d="m272 185.132 5-5 5 5"/></g><rect width="58" height="6" x="167" y="181.132" fill="#1C1336" rx="3"/><circle cx="147" cy="183.132" r="9" fill="#120632"/></g><g opacity=".7"><rect width="58" height="6" x="167" y="237.132" fill="#1C1336" rx="3"/><circle cx="147" cy="239.132" r="9" fill="#120632"/></g><g opacity=".7"><rect width="58" height="6" x="167" y="293.132" fill="#1C1336" rx="3"/><circle cx="147" cy="295.132" r="9" fill="#120632"/></g><g opacity=".7"><rect width="58" height="6" x="167" y="349.132" fill="#1C1336" rx="3"/><circle cx="147" cy="351.132" r="9" fill="#120632"/></g><g opacity=".7"><rect width="58" height="6" x="167" y="405.132" fill="#1C1336" rx="3"/><circle cx="147" cy="407.132" r="9" fill="#120632"/></g><g opacity=".7"><rect width="58" height="6" x="167" y="461.132" fill="#1C1336" rx="3"/><circle cx="147" cy="463.132" r="9" fill="#120632"/></g><g opacity=".7"><rect width="58" height="6" x="167" y="517.132" fill="#1C1336" rx="3"/><circle cx="147" cy="519.132" r="9" fill="#120632"/></g><g opacity=".7"><rect width="37" height="6" x="311" y="114.132" fill="#1C1336" rx="3"/><rect width="24" height="6" x="365" y="114.132" fill="#120632" rx="3"/><rect width="24" height="6" x="365" y="114.132" fill="#1C1336" rx="3"/><g clip-path="url(#d)"><path stroke="#190844" stroke-linecap="round" stroke-linejoin="round" stroke-width="2" d="m355 114.632 2.5 2.5-2.5 2.5"/></g></g><path fill="url(#e)" d="M80 254h1110v369H80z"/><g filter="url(#f)"><g clip-path="url(#g)"><rect width="306" height="158" x="80.5" y="113.132" fill="#0B0420" rx="16"/><path stroke="url(#h)" stroke-opacity=".9" stroke-width="2" d="M80.5 113.132h225"/><path fill="#EDE9FE" d="M103.704 151.132h-1.764v-13.32h4.716c2.826 0 4.23 1.926 4.23 3.852 0 1.602-.954 3.204-2.898 3.708l3.366 5.76h-1.998l-3.222-5.598h-2.43v5.598zm2.934-11.772h-2.934v4.662h2.934c1.638 0 2.448-1.17 2.448-2.322 0-1.17-.81-2.34-2.448-2.34zm10.227 11.952c-3.114 0-4.518-2.52-4.518-4.95 0-2.412 1.386-4.95 4.446-4.95 2.43 0 4.176 1.674 4.176 4.968v.504h-6.894c.09 1.638 1.098 2.97 2.79 2.97 1.944 0 2.394-1.62 2.394-1.62h1.602s-.54 3.078-3.996 3.078zm-2.772-5.76h5.202c-.09-1.854-1.242-2.682-2.502-2.682-1.512 0-2.538 1.062-2.7 2.682zm13.322 5.58h-1.818l-3.636-9.54h1.782l2.79 7.452 2.736-7.452h1.8l-3.654 9.54zm9.173.18c-3.114 0-4.518-2.52-4.518-4.95 0-2.412 1.386-4.95 4.446-4.95 2.43 0 4.176 1.674 4.176 4.968v.504h-6.894c.09 1.638 1.098 2.97 2.79 2.97 1.944 0 2.394-1.62 2.394-1.62h1.602s-.54 3.078-3.996 3.078zm-2.772-5.76h5.202c-.09-1.854-1.242-2.682-2.502-2.682-1.512 0-2.538 1.062-2.7 2.682zm10.56 5.58h-1.71v-9.54h1.71v1.386h.108c.234-.432.972-1.566 2.682-1.566 2.088 0 3.294 1.566 3.294 3.582v6.138h-1.71v-6.03c0-1.26-.72-2.214-2.07-2.214-1.62 0-2.304 1.386-2.304 2.862v5.382zm11.362.18c-1.89 0-3.114-1.242-3.114-3.33v-6.39h1.71v6.3c0 1.242.738 1.944 1.872 1.944 1.71 0 2.376-1.566 2.376-3.042v-5.202h1.71v9.54h-1.71v-1.368h-.108c-.234.432-.954 1.548-2.736 1.548zm11.059 0c-3.114 0-4.518-2.52-4.518-4.95 0-2.412 1.386-4.95 4.446-4.95 2.43 0 4.176 1.674 4.176 4.968v.504h-6.894c.09 1.638 1.098 2.97 2.79 2.97 1.944 0 2.394-1.62 2.394-1.62h1.602s-.54 3.078-3.996 3.078zm-2.772-5.76h5.202c-.09-1.854-1.242-2.682-2.502-2.682-1.512 0-2.538 1.062-2.7 2.682z"/><path fill="#DDD6FE" d="M106.544 227.832h-2.133v-2.457c-6.561-.594-6.453-6.426-6.453-6.426h2.673s0 3.537 3.78 4.104v-7.047l-.108-.027c-3.483-.756-5.778-2.16-5.778-5.481 0-3.321 2.808-5.292 5.886-5.589v-2.403h2.133v2.457c5.616.702 5.832 5.778 5.832 5.778h-2.673s-.135-2.835-3.159-3.483v6.642l.189.054c2.835.621 5.886 1.62 5.886 5.589 0 3.159-2.565 5.454-6.075 5.832v2.457zm-5.4-17.361c0 1.539.999 2.376 3.267 2.943v-6.237c-1.998.27-3.267 1.647-3.267 3.294zm8.856 9.072c0-1.782-1.296-2.565-3.456-3.078v6.588c1.944-.351 3.456-1.647 3.456-3.51zm10.571 5.589h-2.592c.297-8.613 5.427-15.39 7.317-17.631h-10.719v-2.349h13.743v1.971s-7.371 7.56-7.749 18.009zm16.302.27c-4.185 0-6.939-2.511-6.939-5.805 0-3.861 3.429-5.022 3.429-5.022v-.135s-2.889-.999-2.889-4.185c0-3.051 2.511-5.373 6.399-5.373s6.399 2.322 6.399 5.373c0 3.186-2.889 4.185-2.889 4.185v.135s3.429 1.161 3.429 5.022c0 3.294-2.754 5.805-6.939 5.805zm0-11.853c2.565 0 3.888-1.674 3.888-3.267 0-1.674-1.323-3.294-3.888-3.294s-3.888 1.62-3.888 3.294c0 1.593 1.323 3.267 3.888 3.267zm0 9.72c2.916 0 4.428-1.971 4.428-3.915 0-1.863-1.458-3.753-4.428-3.753-2.97 0-4.428 1.89-4.428 3.753 0 1.944 1.512 3.915 4.428 3.915zm11.199 5.184h-1.35l1.944-3.132c-.864-.081-1.539-.783-1.539-1.728 0-1.053.837-1.701 1.755-1.701.999 0 1.809.648 1.809 1.755 0 1.026-.729 2.106-2.43 4.536l-.189.27zm17.813-3.321h-2.646v-4.644l-9.774-.027v-2.403l9.18-12.906h3.24v13.041h3.483v2.295h-3.483v4.644zm-9.693-6.939h7.047v-9.936l-7.047 9.936zm28.052 6.939h-2.646v-4.644l-9.774-.027v-2.403l9.18-12.906h3.24v13.041h3.483v2.295h-3.483v4.644zm-9.693-6.939h7.047v-9.936l-7.047 9.936zm29.441 6.939h-13.635v-1.863l4.374-4.05c3.645-3.375 6.183-5.238 6.183-8.154 0-2.403-1.998-3.78-3.942-3.78-4.266 0-4.185 4.266-4.185 4.266h-2.538s-.081-6.669 6.75-6.669c3.456 0 6.561 2.214 6.561 6.129 0 3.618-3.024 5.94-6.534 9.18l-2.754 2.538h9.72v2.403zm4.816.27c-1.026 0-1.755-.81-1.755-1.755 0-.972.729-1.755 1.755-1.755.999 0 1.755.783 1.755 1.755 0 .972-.756 1.755-1.755 1.755zm11.614 0c-4.185 0-6.939-2.511-6.939-5.805 0-3.861 3.429-5.022 3.429-5.022v-.135s-2.889-.999-2.889-4.185c0-3.051 2.511-5.373 6.399-5.373s6.399 2.322 6.399 5.373c0 3.186-2.889 4.185-2.889 4.185v.135s3.429 1.161 3.429 5.022c0 3.294-2.754 5.805-6.939 5.805zm0-11.853c2.565 0 3.888-1.674 3.888-3.267 0-1.674-1.323-3.294-3.888-3.294s-3.888 1.62-3.888 3.294c0 1.593 1.323 3.267 3.888 3.267zm0 9.72c2.916 0 4.428-1.971 4.428-3.915 0-1.863-1.458-3.753-4.428-3.753-2.97 0-4.428 1.89-4.428 3.753 0 1.944 1.512 3.915 4.428 3.915zm16.869 2.106c-4.968 0-7.641-4.752-7.641-10.26 0-5.535 2.673-10.26 7.641-10.26s7.641 4.725 7.641 10.26c0 5.508-2.673 10.26-7.641 10.26zm0-2.43c2.835 0 4.914-2.673 4.914-7.83 0-5.13-2.079-7.803-4.914-7.803-2.835 0-4.914 2.673-4.914 7.803s2.052 7.83 4.914 7.83z"/><path fill="#3F3BF2" d="M100.492 249.422V242.7h1.338v6.722h-1.338zm-2.69-2.695v-1.332h6.722v1.332h-6.721zm12.445-5.777v10.182h-1.542v-8.641h-.059l-2.436 1.591v-1.471l2.54-1.661h1.497zm2.334 10.182v-1.114l3.445-3.569c.368-.388.671-.728.91-1.02.242-.295.423-.575.542-.84a2.04 2.04 0 0 0 .179-.845c0-.338-.08-.63-.239-.875a1.56 1.56 0 0 0-.651-.572 2.07 2.07 0 0 0-.93-.204c-.364 0-.683.075-.954.224-.272.149-.481.36-.627.632-.146.271-.219.59-.219.954h-1.466c0-.62.142-1.162.427-1.626a2.904 2.904 0 0 1 1.174-1.078c.497-.259 1.062-.388 1.695-.388.64 0 1.203.127 1.69.383.491.252.874.596 1.149 1.034.275.434.412.924.412 1.471 0 .378-.071.748-.213 1.109-.14.361-.383.764-.731 1.208-.348.441-.832.976-1.452 1.606l-2.023 2.118v.074h4.584v1.318h-6.702zm9.165.094a.966.966 0 0 1-.701-.288.961.961 0 0 1-.293-.706c0-.272.097-.504.293-.696a.955.955 0 0 1 .701-.293c.272 0 .505.097.701.293a.938.938 0 0 1 .293.696c0 .182-.046.35-.139.502a1.023 1.023 0 0 1-.358.358.943.943 0 0 1-.497.134zm2.332-2.083V247.9l4.4-6.95h.979v1.83h-.621l-3.147 4.981v.08h6.03v1.302h-7.641zm4.827 1.989v-2.367l.01-.566v-7.249h1.457v10.182h-1.467zm7.681.139a4.092 4.092 0 0 1-1.342-.249 3.15 3.15 0 0 1-1.193-.795c-.358-.371-.645-.87-.86-1.496-.212-.627-.318-1.409-.318-2.347 0-.888.087-1.677.263-2.367.179-.689.436-1.271.771-1.745a3.41 3.41 0 0 1 1.213-1.088 3.379 3.379 0 0 1 1.596-.373c.606 0 1.145.119 1.615.358.471.238.852.568 1.144.989.295.421.482.9.562 1.437h-1.517a1.953 1.953 0 0 0-.611-1.039c-.305-.269-.703-.403-1.193-.403-.746 0-1.328.325-1.745.975-.415.649-.623 1.552-.627 2.709h.075c.175-.288.391-.534.646-.736a3.04 3.04 0 0 1 1.879-.641c.59 0 1.124.144 1.601.432.481.286.864.68 1.149 1.184.285.504.427 1.08.427 1.73 0 .649-.147 1.238-.442 1.765a3.254 3.254 0 0 1-1.233 1.253c-.53.305-1.15.454-1.86.447zm-.005-1.293a1.94 1.94 0 0 0 1.049-.288c.309-.192.552-.451.731-.775a2.22 2.22 0 0 0 .269-1.089c0-.391-.088-.748-.264-1.069a1.985 1.985 0 0 0-.716-.766 1.904 1.904 0 0 0-1.034-.283 1.98 1.98 0 0 0-1.476.636 2.292 2.292 0 0 0-.448.686 2.094 2.094 0 0 0-.159.811 2.167 2.167 0 0 0 .994 1.844c.312.196.663.293 1.054.293zm10.246-.755v-.537c0-.385.079-.736.238-1.054.163-.322.398-.579.706-.771.312-.195.688-.293 1.129-.293.451 0 .829.096 1.133.288.305.193.536.449.691.771.16.321.239.674.239 1.059v.537c0 .384-.079.737-.239 1.059a1.906 1.906 0 0 1-.7.77c-.305.193-.68.289-1.124.289-.448 0-.825-.096-1.134-.289a1.909 1.909 0 0 1-.701-.77 2.358 2.358 0 0 1-.238-1.059zm1.158-.537v.537c0 .285.068.543.204.775.136.232.373.348.711.348.335 0 .568-.116.701-.348a1.54 1.54 0 0 0 .199-.775v-.537a1.57 1.57 0 0 0-.194-.776c-.126-.232-.361-.348-.706-.348-.332 0-.567.116-.706.348a1.482 1.482 0 0 0-.209.776zm-6.279-5.29v-.537c0-.384.08-.737.239-1.059.162-.321.397-.578.706-.77.311-.193.687-.289 1.128-.289.451 0 .829.096 1.134.289.305.192.535.449.691.77.156.322.233.675.233 1.059v.537c0 .385-.079.737-.238 1.059a1.885 1.885 0 0 1-.696.771c-.305.192-.68.288-1.124.288-.451 0-.83-.096-1.138-.288a1.927 1.927 0 0 1-.696-.771 2.356 2.356 0 0 1-.239-1.059zm1.163-.537v.537c0 .285.067.544.199.776.136.232.373.348.711.348.332 0 .564-.116.696-.348.136-.232.204-.491.204-.776v-.537c0-.285-.065-.543-.194-.775-.129-.232-.364-.348-.706-.348-.331 0-.567.116-.706.348-.136.232-.204.49-.204.775zm-.691 8.273 7-10.182h1.189l-7 10.182h-1.189z"/><rect width="107" height="8" x="101.5" y="165.132" fill="#fff" fill-opacity=".08" rx="4"/><rect width="96" height="8" x="169.5" y="243.132" fill="#fff" fill-opacity=".08" rx="4"/><g style="mix-blend-mode:plus-lighter"><path fill="#4238F5" fill-opacity=".19" d="M313.5 240.132c-15.646 5.215-31 6-44 32h123v-94H387c-7 13.5-28.5 15.5-39 25.5s-18 31-34.5 36.5z"/><path stroke="#3F3BF2" d="M313.5 240.132c-15.646 5.215-31 6-44 32h123v-94H387c-7 13.5-28.5 15.5-39 25.5s-18 31-34.5 36.5z"/></g><path stroke="url(#i)" stroke-opacity=".9" stroke-width="1.5" d="M386 209.632v44c0 8.836-7.163 16-16 16h-55.5"/><g clip-path="url(#j)"><path fill="#fff" fill-opacity=".2" fill-rule="evenodd" d="M159.625 243.382a.75.75 0 0 0 0 1.5h3.064l-4.719 4.72a.749.749 0 1 0 1.06 1.06l4.72-4.72v3.065a.75.75 0 0 0 1.5 0v-4.875a.739.739 0 0 0-.22-.53.732.732 0 0 0-.53-.22h-4.875z" clip-rule="evenodd"/></g></g><rect width="304.721" height="156.721" x="81.139" y="113.771" stroke="url(#k)" stroke-opacity=".2" stroke-width="1.279" rx="15.361"/></g><g clip-path="url(#l)"><rect width="255" height="158" x="916.5" y="70.132" fill="#0B0420" rx="16"/><path stroke="url(#m)" stroke-width="2" d="M932.5 70.132h219"/><path fill="#EDE9FE" d="M939.704 108.132h-1.764v-13.32h1.584l6.948 10.134V94.812h1.764v13.32h-1.584l-6.948-10.116v10.116zm15.218.18c-3.114 0-4.518-2.52-4.518-4.95 0-2.412 1.386-4.95 4.446-4.95 2.43 0 4.176 1.674 4.176 4.968v.504h-6.894c.09 1.638 1.098 2.97 2.79 2.97 1.944 0 2.394-1.62 2.394-1.62h1.602s-.54 3.078-3.996 3.078zm-2.772-5.76h5.202c-.09-1.854-1.242-2.682-2.502-2.682-1.512 0-2.538 1.062-2.7 2.682zm12.799 5.58h-1.854l-3.078-9.54h1.746l2.268 7.236 2.376-7.236h1.62l2.358 7.236 2.286-7.236h1.746l-3.096 9.54h-1.836l-2.268-7.038-2.268 7.038zm23.591 0h-8.622v-13.32h1.764v11.772h6.858v1.548zm5.688.18c-3.114 0-4.518-2.52-4.518-4.95 0-2.412 1.386-4.95 4.446-4.95 2.43 0 4.176 1.674 4.176 4.968v.504h-6.894c.09 1.638 1.098 2.97 2.79 2.97 1.944 0 2.394-1.62 2.394-1.62h1.602s-.54 3.078-3.996 3.078zm-2.772-5.76h5.202c-.09-1.854-1.242-2.682-2.502-2.682-1.512 0-2.538 1.062-2.7 2.682zm12.904-4.14c1.8 0 2.66 1.026 3.08 1.692h.1v-1.512h1.71v9.54h-1.71v-1.512h-.1c-.42.684-1.28 1.692-3.08 1.692-2.9 0-4.32-2.502-4.32-4.95 0-2.448 1.42-4.95 4.32-4.95zm.29 1.458c-1.93 0-2.88 1.746-2.88 3.492s.95 3.492 2.88 3.492c1.9 0 2.86-1.746 2.86-3.492s-.96-3.492-2.86-3.492zm10.9 8.442c-2.9 0-4.32-2.502-4.32-4.95 0-2.448 1.42-4.95 4.32-4.95 1.8 0 2.66 1.026 3.07 1.692h.11v-5.652h1.71v13.68h-1.71v-1.512h-.11c-.41.684-1.27 1.692-3.07 1.692zm.28-1.458c1.91 0 2.87-1.746 2.87-3.492s-.96-3.492-2.87-3.492c-1.92 0-2.88 1.746-2.88 3.492s.96 3.492 2.88 3.492zm10.45 1.458c-3.64 0-3.85-3.06-3.85-3.06h1.73s.18 1.602 2.16 1.602c1.13 0 1.78-.612 1.78-1.404 0-.702-.51-1.08-1.42-1.296l-1.3-.306c-1.46-.342-2.75-1.044-2.75-2.646 0-1.638 1.33-2.79 3.31-2.79 3.29 0 3.54 2.772 3.54 2.772h-1.65s-.18-1.35-1.87-1.35c-1.16 0-1.66.63-1.66 1.26 0 .612.54.972 1.33 1.152l1.32.306c1.62.378 2.82 1.188 2.82 2.826 0 1.602-1.28 2.934-3.49 2.934z"/><path fill="#DDD6FE" d="M955.525 185.132h-3.43v-6.02l-12.67-.035v-3.115l11.9-16.73h4.2v16.905h4.515v2.975h-4.515v6.02zm-12.565-8.995h9.135v-12.88l-9.135 12.88zm26.632 8.995h-3.36c.385-11.165 7.035-19.95 9.485-22.855h-13.895v-3.045h17.815v2.555s-9.555 9.8-10.045 23.345zm29.863 0H981.78v-2.415l5.67-5.25c4.725-4.375 8.015-6.79 8.015-10.57 0-3.115-2.59-4.9-5.11-4.9-5.53 0-5.425 5.53-5.425 5.53h-3.29s-.105-8.645 8.75-8.645c4.48 0 8.505 2.87 8.505 7.945 0 4.69-3.92 7.7-8.47 11.9l-3.57 3.29h12.6v3.115z"/><path fill="#EDE9FE" d="M939.636 204.132h-1.176v-8.88h1.056l4.632 6.756v-6.756h1.176v8.88h-1.056l-4.632-6.744v6.744zm10.385.12c-2.076 0-3.012-1.68-3.012-3.3 0-1.608.924-3.3 2.964-3.3 1.62 0 2.784 1.116 2.784 3.312v.336h-4.596c.06 1.092.732 1.98 1.86 1.98 1.296 0 1.596-1.08 1.596-1.08h1.068s-.36 2.052-2.664 2.052zm-1.848-3.84h3.468c-.06-1.236-.828-1.788-1.668-1.788-1.008 0-1.692.708-1.8 1.788zm8.773 3.72h-1.236l-2.052-6.36h1.164l1.512 4.824 1.584-4.824h1.08l1.572 4.824 1.524-4.824h1.164l-2.064 6.36h-1.224l-1.512-4.692-1.512 4.692zm13.351.12c-2.088 0-3.132-1.668-3.132-3.3 0-1.62 1.032-3.3 3.132-3.3 2.544 0 2.784 2.28 2.784 2.28h-1.104s-.204-1.296-1.68-1.296c-1.332 0-2.004 1.116-2.004 2.316 0 1.2.672 2.316 2.004 2.316a1.61 1.61 0 0 0 1.68-1.296h1.104s-.24 2.28-2.784 2.28zm7.108-6.6c1.2 0 1.776.684 2.052 1.128h.072v-1.008h1.14v6.36h-1.14v-1.008h-.072c-.276.456-.852 1.128-2.052 1.128-1.932 0-2.88-1.668-2.88-3.3s.948-3.3 2.88-3.3zm.192.972c-1.284 0-1.92 1.164-1.92 2.328s.636 2.328 1.92 2.328c1.272 0 1.908-1.164 1.908-2.328s-.636-2.328-1.908-2.328zm6.007 5.508h-1.14l.012-9.12h1.128v9.12zm3.059 0h-1.14l.012-9.12h1.128v9.12zm4.126.12c-2.424 0-2.568-2.04-2.568-2.04h1.152s.12 1.068 1.44 1.068c.756 0 1.188-.408 1.188-.936 0-.468-.336-.72-.948-.864l-.864-.204c-.972-.228-1.836-.696-1.836-1.764 0-1.092.888-1.86 2.208-1.86 2.196 0 2.364 1.848 2.364 1.848h-1.104s-.12-.9-1.248-.9c-.768 0-1.104.42-1.104.84 0 .408.36.648.888.768l.876.204c1.08.252 1.884.792 1.884 1.884 0 1.068-.852 1.956-2.328 1.956z"/><rect width="110" height="8" x="937.5" y="120.132" fill="#fff" fill-opacity=".08" rx="4"/><path stroke="url(#n)" stroke-opacity=".9" stroke-width="1.5" d="M1171 166.632v44c0 8.836-7.16 16-16 16h-55.5"/><path fill="#3F3BF2" d="M1081.49 185.422V178.7h1.34v6.722h-1.34zm-2.69-2.695v-1.332h6.72v1.332h-6.72zm12.45-5.777v10.182h-1.54v-8.641h-.06l-2.44 1.591v-1.471l2.54-1.661h1.5zm5.69 10.321c-.62 0-1.18-.119-1.68-.358a3.035 3.035 0 0 1-1.18-.994c-.3-.421-.45-.902-.47-1.442h1.49c.03.438.23.797.58 1.079.35.282.77.422 1.26.422.39 0 .74-.089 1.04-.268.31-.182.54-.433.72-.751.17-.318.26-.681.26-1.089 0-.414-.09-.783-.27-1.108-.18-.325-.42-.58-.74-.766-.31-.185-.67-.28-1.07-.283-.31 0-.62.053-.93.159-.31.106-.57.245-.76.418l-1.41-.209.58-5.131h5.59v1.317h-4.32l-.32 2.849h.06c.2-.192.46-.353.79-.482s.69-.194 1.06-.194c.62 0 1.18.148 1.66.443.49.295.87.697 1.15 1.208.28.507.42 1.09.42 1.75 0 .659-.15 1.248-.45 1.765-.3.517-.71.924-1.24 1.223-.53.295-1.14.442-1.82.442zm8.46 0c-.46-.007-.9-.089-1.35-.249a3.21 3.21 0 0 1-1.19-.795c-.36-.371-.64-.87-.86-1.496-.21-.627-.32-1.409-.32-2.347 0-.888.09-1.677.27-2.367.18-.689.43-1.271.77-1.745.33-.477.74-.84 1.21-1.088.47-.249 1.01-.373 1.6-.373.6 0 1.14.119 1.61.358.47.238.85.568 1.15.989.29.421.48.9.56 1.437h-1.52a1.97 1.97 0 0 0-.61-1.039c-.31-.269-.7-.403-1.19-.403-.75 0-1.33.325-1.75.975-.41.649-.62 1.552-.63 2.709h.08c.18-.288.39-.534.65-.736.25-.205.54-.363.86-.472a3.04 3.04 0 0 1 1.02-.169c.59 0 1.12.144 1.6.432.48.286.86.68 1.14 1.184.29.504.43 1.08.43 1.73 0 .649-.15 1.238-.44 1.765-.29.527-.7.944-1.23 1.253-.53.305-1.15.454-1.86.447zm-.01-1.293c.39 0 .74-.096 1.05-.288.31-.192.55-.451.73-.775.18-.325.27-.688.27-1.089 0-.391-.09-.748-.26-1.069a2.017 2.017 0 0 0-.72-.766c-.3-.189-.65-.283-1.03-.283-.3 0-.57.056-.82.169-.25.113-.47.268-.66.467a2.28 2.28 0 0 0-.45.686c-.1.255-.16.526-.16.811 0 .381.09.734.27 1.059.18.324.42.586.73.785.31.196.66.293 1.05.293zm5.47 1.248a.957.957 0 0 1-.7-.288.953.953 0 0 1-.3-.706c0-.272.1-.504.3-.696a.946.946 0 0 1 .7-.293c.27 0 .5.097.7.293.19.192.29.424.29.696 0 .182-.04.35-.14.502-.09.149-.21.269-.36.358a.901.901 0 0 1-.49.134zm5.18-10.276v10.182h-1.55v-8.641h-.06l-2.43 1.591v-1.471l2.54-1.661h1.5zm5.87 10.351c-.78-.003-1.45-.211-2.01-.622-.56-.411-.98-1.009-1.28-1.794-.29-.786-.44-1.732-.44-2.839 0-1.104.15-2.047.44-2.829.3-.782.73-1.379 1.29-1.79.56-.411 1.23-.616 2-.616.78 0 1.45.207 2.01.621.55.411.98 1.008 1.28 1.79.29.779.44 1.72.44 2.824 0 1.11-.14 2.058-.44 2.844-.29.782-.72 1.38-1.28 1.794-.55.411-1.22.617-2.01.617zm0-1.328c.69 0 1.23-.336 1.62-1.009.39-.673.59-1.645.59-2.918 0-.845-.09-1.56-.27-2.143-.18-.587-.43-1.031-.76-1.332a1.674 1.674 0 0 0-1.18-.458c-.68 0-1.22.338-1.61 1.015-.39.676-.59 1.648-.59 2.918 0 .848.08 1.566.26 2.153.18.583.43 1.025.76 1.327.33.298.72.447 1.18.447zm10.39-.75v-.537c0-.385.08-.736.24-1.054.16-.322.4-.579.71-.771.31-.195.68-.293 1.12-.293.46 0 .83.096 1.14.288.3.193.53.449.69.771.16.321.24.674.24 1.059v.537c0 .384-.08.737-.24 1.059a1.9 1.9 0 0 1-.7.77c-.31.193-.68.289-1.13.289-.44 0-.82-.096-1.13-.289a1.9 1.9 0 0 1-.7-.77 2.347 2.347 0 0 1-.24-1.059zm1.16-.537v.537c0 .285.07.543.2.775.14.232.38.348.71.348.34 0 .57-.116.71-.348.13-.232.19-.49.19-.775v-.537c0-.285-.06-.544-.19-.776-.13-.232-.36-.348-.71-.348-.33 0-.56.116-.7.348-.14.232-.21.491-.21.776zm-6.28-5.29v-.537c0-.384.08-.737.24-1.059.16-.321.4-.578.71-.77.31-.193.68-.289 1.12-.289.45 0 .83.096 1.14.289.3.192.53.449.69.77.15.322.23.675.23 1.059v.537c0 .385-.08.737-.24 1.059-.15.318-.38.575-.69.771-.31.192-.68.288-1.13.288-.45 0-.83-.096-1.13-.288a1.908 1.908 0 0 1-.7-.771 2.344 2.344 0 0 1-.24-1.059zm1.16-.537v.537c0 .285.07.544.2.776.14.232.38.348.71.348.34 0 .57-.116.7-.348.14-.232.2-.491.2-.776v-.537c0-.285-.06-.543-.19-.775-.13-.232-.36-.348-.71-.348-.33 0-.56.116-.7.348-.14.232-.21.49-.21.775zm-.69 8.273 7-10.182h1.19l-7 10.182h-1.19z"/><rect width="79" height="8" x="1074.5" y="199.132" fill="#fff" fill-opacity=".08" rx="4"/><g clip-path="url(#o)"><path fill="#fff" fill-opacity=".2" fill-rule="evenodd" d="M1145.62 179.382c-.41 0-.74.336-.74.75s.33.75.74.75h3.07l-4.72 4.72a.749.749 0 1 0 1.06 1.06l4.72-4.72v3.065c0 .414.34.75.75.75s.75-.336.75-.75v-4.875a.69.69 0 0 0-.06-.287.66.66 0 0 0-.16-.243.692.692 0 0 0-.24-.163.769.769 0 0 0-.29-.057h-4.88z" clip-rule="evenodd"/></g></g><rect width="253.721" height="156.721" x="917.14" y="70.771" stroke="url(#p)" stroke-opacity=".2" stroke-width="1.279" rx="15.361"/><g filter="url(#q)"><g clip-path="url(#r)"><rect width="395" height="251" x="449" y="147.132" fill="#0B0420" rx="16"/><path stroke="url(#s)" stroke-width="2" d="M474 147.132h314"/><path fill="#EDE9FE" d="M476.434 185.312c-4.23 0-6.444-3.438-6.444-6.858 0-3.384 2.214-6.822 6.444-6.822s6.444 3.438 6.444 6.822c0 3.42-2.214 6.858-6.444 6.858zm0-1.638c3.006 0 4.644-2.538 4.644-5.22 0-2.646-1.638-5.184-4.644-5.184-3.006 0-4.644 2.538-4.644 5.184 0 2.682 1.638 5.22 4.644 5.22zm10.227 4.986h-1.71v-13.068h1.71v1.512h.108c.414-.684 1.278-1.692 3.078-1.692 2.898 0 4.32 2.502 4.32 4.95 0 2.448-1.422 4.95-4.32 4.95-1.8 0-2.664-1.026-3.078-1.692h-.108v5.04zm.036-8.298c0 1.746.954 3.492 2.862 3.492 1.926 0 2.88-1.746 2.88-3.492s-.954-3.492-2.88-3.492c-1.908 0-2.862 1.746-2.862 3.492zm11.346 8.298h-1.71v-13.068h1.71v1.512h.108c.414-.684 1.278-1.692 3.078-1.692 2.898 0 4.32 2.502 4.32 4.95 0 2.448-1.422 4.95-4.32 4.95-1.8 0-2.664-1.026-3.078-1.692h-.108v5.04zm.036-8.298c0 1.746.954 3.492 2.862 3.492 1.926 0 2.88-1.746 2.88-3.492s-.954-3.492-2.88-3.492c-1.908 0-2.862 1.746-2.862 3.492zm13.887 4.95c-3.06 0-4.698-2.412-4.698-4.95 0-2.538 1.638-4.95 4.698-4.95 3.06 0 4.698 2.412 4.698 4.95 0 2.538-1.638 4.95-4.698 4.95zm0-1.494c1.926 0 2.952-1.674 2.952-3.456s-1.026-3.456-2.952-3.456-2.952 1.674-2.952 3.456 1.026 3.456 2.952 3.456zm8.38 1.314h-1.71v-9.54h1.71v1.188h.072c.396-.72 1.134-1.368 2.574-1.368.414 0 .81.054.81.054v1.638s-.45-.054-.864-.054c-1.656 0-2.592.882-2.592 3.024v5.058zm9.029.18c-1.962 0-2.97-1.062-2.97-2.88v-5.436h-1.71v-1.404h1.71v-2.394h1.71v2.394h2.322v1.404h-2.322v5.436c0 .972.54 1.386 1.548 1.386.522 0 1.116-.108 1.116-.108v1.458s-.648.144-1.404.144zm6.403 0c-1.89 0-3.114-1.242-3.114-3.33v-6.39h1.71v6.3c0 1.242.738 1.944 1.872 1.944 1.71 0 2.376-1.566 2.376-3.042v-5.202h1.71v9.54h-1.71v-1.368h-.108c-.234.432-.954 1.548-2.736 1.548zm8.432-.18h-1.71v-9.54h1.71v1.386h.108c.234-.432.972-1.566 2.682-1.566 2.088 0 3.294 1.566 3.294 3.582v6.138h-1.71v-6.03c0-1.26-.72-2.214-2.07-2.214-1.62 0-2.304 1.386-2.304 2.862v5.382zm9.364-11.358a1.095 1.095 0 0 1-1.116-1.098c0-.612.468-1.116 1.116-1.116.63 0 1.116.504 1.116 1.116 0 .612-.486 1.098-1.116 1.098zm.864 11.358h-1.71v-9.54h1.71v9.54zm6.456.18c-1.962 0-2.97-1.062-2.97-2.88v-5.436h-1.71v-1.404h1.71v-2.394h1.71v2.394h2.322v1.404h-2.322v5.436c0 .972.54 1.386 1.548 1.386.522 0 1.116-.108 1.116-.108v1.458s-.648.144-1.404.144zm4.405-11.538a1.095 1.095 0 0 1-1.116-1.098c0-.612.468-1.116 1.116-1.116.63 0 1.116.504 1.116 1.116 0 .612-.486 1.098-1.116 1.098zm.864 11.358h-1.71v-9.54h1.71v9.54zm6.745.18c-3.114 0-4.518-2.52-4.518-4.95 0-2.412 1.386-4.95 4.446-4.95 2.43 0 4.176 1.674 4.176 4.968v.504h-6.894c.09 1.638 1.098 2.97 2.79 2.97 1.944 0 2.394-1.62 2.394-1.62h1.602s-.54 3.078-3.996 3.078zm-2.772-5.76h5.202c-.09-1.854-1.242-2.682-2.502-2.682-1.512 0-2.538 1.062-2.7 2.682zm12.341 5.76c-3.636 0-3.852-3.06-3.852-3.06h1.728s.18 1.602 2.16 1.602c1.134 0 1.782-.612 1.782-1.404 0-.702-.504-1.08-1.422-1.296l-1.296-.306c-1.458-.342-2.754-1.044-2.754-2.646 0-1.638 1.332-2.79 3.312-2.79 3.294 0 3.546 2.772 3.546 2.772h-1.656s-.18-1.35-1.872-1.35c-1.152 0-1.656.63-1.656 1.26 0 .612.54.972 1.332 1.152l1.314.306c1.62.378 2.826 1.188 2.826 2.826 0 1.602-1.278 2.934-3.492 2.934z"/><rect width="70" height="62" x="469" y="237.132" fill="#fff" fill-opacity=".08" rx="16"/><circle cx="487.5" cy="247.632" r="2.5" fill="#3F3BF2"/><path fill="#DDD6FE" d="M490.28 255.372h1.32v17.76h-2.304v-13.776l-3.336.024v-1.344l.6-.192c1.68-.528 2.592-1.08 3.504-2.208l.216-.264zm11.034 18c-6.096 0-6.264-5.472-6.264-5.472h2.208s.144 3.456 4.056 3.456c2.784 0 4.128-2.04 4.128-4.104 0-2.112-1.392-4.224-4.032-4.224-2.784 0-3.552 2.208-3.552 2.208h-2.304l1.392-9.864h9.552v2.088h-7.8l-.72 5.088h.072c.552-.6 1.536-1.512 3.696-1.512 3.912 0 5.976 3.072 5.976 6.168 0 3.072-2.064 6.168-6.408 6.168zm13.972-.24h-2.304c.264-7.656 4.824-13.68 6.504-15.672h-9.528v-2.088h12.216v1.752s-6.552 6.72-6.888 16.008z"/><path fill="#EDE9FE" d="M488.2 289.132h-2.4v-7.4h2.4c2.36 0 3.53 1.85 3.53 3.7s-1.17 3.7-3.53 3.7zm-.04-6.54h-1.38v5.68h1.38c1.73 0 2.59-1.42 2.59-2.84s-.86-2.84-2.59-2.84zm7.225 6.64c-1.7 0-2.61-1.34-2.61-2.75s.91-2.75 2.61-2.75c1.7 0 2.61 1.34 2.61 2.75s-.91 2.75-2.61 2.75zm0-.83c1.07 0 1.64-.93 1.64-1.92 0-.99-.57-1.92-1.64-1.92-1.07 0-1.64.93-1.64 1.92 0 .99.57 1.92 1.64 1.92zm4.756.73h-.95v-5.3h.95v.77h.06c.13-.24.54-.87 1.49-.87 1.16 0 1.83.87 1.83 1.99v3.41h-.95v-3.35c0-.7-.4-1.23-1.15-1.23-.9 0-1.28.77-1.28 1.59v2.99zm7.093.1c-1.73 0-2.51-1.4-2.51-2.75 0-1.34.77-2.75 2.47-2.75 1.35 0 2.32.93 2.32 2.76v.28h-3.83c.05.91.61 1.65 1.55 1.65 1.08 0 1.33-.9 1.33-.9h.89s-.3 1.71-2.22 1.71zm-1.54-3.2h2.89c-.05-1.03-.69-1.49-1.39-1.49-.84 0-1.41.59-1.5 1.49z"/><rect width="72" height="62" x="557" y="237.132" fill="#fff" fill-opacity=".08" rx="16"/><circle cx="575.5" cy="247.632" r="2.5" fill="#818CF8"/><path fill="#DDD6FE" d="M578.28 255.372h1.32v17.76h-2.304v-13.776l-3.336.024v-1.344l.6-.192c1.68-.528 2.592-1.08 3.504-2.208l.216-.264zm17.298 17.76h-12.12v-1.656l3.888-3.6c3.24-3 5.496-4.656 5.496-7.248 0-2.136-1.776-3.36-3.504-3.36-3.792 0-3.72 3.792-3.72 3.792h-2.256s-.072-5.928 6-5.928c3.072 0 5.832 1.968 5.832 5.448 0 3.216-2.688 5.28-5.808 8.16l-2.448 2.256h8.64v2.136zm8.649.24c-3.144 0-6.12-1.776-6.12-5.568h2.232c0 2.448 1.944 3.576 3.888 3.576 2.04 0 3.816-1.224 3.816-3.408 0-1.896-1.368-3.072-3.432-3.072h-2.4v-1.848h2.4c1.728 0 3.144-1.104 3.144-2.856 0-1.896-1.656-3.096-3.528-3.096-1.776 0-3.6 1.152-3.6 3.6h-2.184c0-3.744 2.904-5.568 5.832-5.568 2.952 0 5.736 1.848 5.736 4.872 0 1.92-1.08 3.288-2.544 3.864v.12c1.68.576 2.904 1.992 2.904 4.056 0 3.336-2.904 5.328-6.144 5.328z"/><path fill="#EDE9FE" d="M574.49 289.132h-1.04l2.61-7.4h1.23l2.62 7.4h-1.04l-.62-1.77h-3.14l-.62 1.77zm2.19-6.28-1.27 3.63h2.54l-1.27-3.63zm6.598 6.38c-1.74 0-2.61-1.39-2.61-2.75 0-1.35.86-2.75 2.61-2.75 2.12 0 2.32 1.9 2.32 1.9h-.92s-.17-1.08-1.4-1.08c-1.11 0-1.67.93-1.67 1.93 0 1 .56 1.93 1.67 1.93 1.23 0 1.4-1.08 1.4-1.08h.92s-.2 1.9-2.32 1.9zm5.773 0c-1.09 0-1.65-.59-1.65-1.6v-3.02h-.95v-.78h.95v-1.33h.95v1.33h1.29v.78h-1.29v3.02c0 .54.3.77.86.77.29 0 .62-.06.62-.06v.81s-.36.08-.78.08zm2.547-6.41c-.36 0-.62-.28-.62-.61 0-.34.26-.62.62-.62.35 0 .62.28.62.62 0 .34-.27.61-.62.61zm.48 6.31h-.95v-5.3h.95v5.3zm4.117 0h-1.01l-2.02-5.3h.99l1.55 4.14 1.52-4.14h1l-2.03 5.3zm5.196.1c-1.73 0-2.51-1.4-2.51-2.75 0-1.34.77-2.75 2.47-2.75 1.35 0 2.32.93 2.32 2.76v.28h-3.83c.05.91.61 1.65 1.55 1.65 1.08 0 1.33-.9 1.33-.9h.89s-.3 1.71-2.22 1.71zm-1.54-3.2h2.89c-.05-1.03-.69-1.49-1.39-1.49-.84 0-1.41.59-1.5 1.49z"/><rect width="75" height="62" x="469" y="312.132" fill="#fff" fill-opacity=".08" rx="16"/><circle cx="487.5" cy="322.632" r="2.5" fill="#A5B4FC"/><path fill="#DDD6FE" d="M492.608 348.372c-3.72 0-6.168-2.232-6.168-5.16 0-3.432 3.048-4.464 3.048-4.464v-.12s-2.568-.888-2.568-3.72c0-2.712 2.232-4.776 5.688-4.776 3.456 0 5.688 2.064 5.688 4.776 0 2.832-2.568 3.72-2.568 3.72v.12s3.048 1.032 3.048 4.464c0 2.928-2.448 5.16-6.168 5.16zm0-10.536c2.28 0 3.456-1.488 3.456-2.904 0-1.488-1.176-2.928-3.456-2.928-2.28 0-3.456 1.44-3.456 2.928 0 1.416 1.176 2.904 3.456 2.904zm0 8.64c2.592 0 3.936-1.752 3.936-3.48 0-1.656-1.296-3.336-3.936-3.336-2.64 0-3.936 1.68-3.936 3.336 0 1.728 1.344 3.48 3.936 3.48z"/><path fill="#EDE9FE" d="M486.49 364.132h-1.04l2.61-7.4h1.23l2.62 7.4h-1.04l-.62-1.77h-3.14l-.62 1.77zm2.19-6.28-1.27 3.63h2.54l-1.27-3.63zm6.436 6.38c-1.09 0-1.65-.59-1.65-1.6v-3.02h-.95v-.78h.95v-1.33h.95v1.33h1.29v.78h-1.29v3.02c0 .54.3.77.86.77.29 0 .62-.06.62-.06v.81s-.36.08-.78.08zm5.082-.1h-.95v-5.3h.95v.66h.04c.22-.4.63-.76 1.43-.76.23 0 .45.03.45.03v.91s-.25-.03-.48-.03c-.92 0-1.44.49-1.44 1.68v2.81zm3.681-6.31c-.36 0-.62-.28-.62-.61 0-.34.26-.62.62-.62.35 0 .62.28.62.62 0 .34-.27.61-.62.61zm.48 6.31h-.95v-5.3h.95v5.3zm3.377.1c-2.02 0-2.14-1.7-2.14-1.7h.96s.1.89 1.2.89c.63 0 .99-.34.99-.78 0-.39-.28-.6-.79-.72l-.72-.17c-.81-.19-1.53-.58-1.53-1.47 0-.91.74-1.55 1.84-1.55 1.83 0 1.97 1.54 1.97 1.54h-.92s-.1-.75-1.04-.75c-.64 0-.92.35-.92.7 0 .34.3.54.74.64l.73.17c.9.21 1.57.66 1.57 1.57 0 .89-.71 1.63-1.94 1.63zm4.088-.1h-.95v-7.6h.95v4.42l2.11-2.12h1.24l-2.44 2.41 2.49 2.89h-1.21l-2.19-2.55v2.55z"/><rect width="72" height="62" x="557" y="312.132" fill="#fff" fill-opacity=".08" rx="16"/><circle cx="575.5" cy="322.632" r="2.5" fill="#C7D2FE"/><path fill="#DDD6FE" d="M587.064 348.132h-12.12v-1.656l3.888-3.6c3.24-3 5.496-4.656 5.496-7.248 0-2.136-1.776-3.36-3.504-3.36-3.792 0-3.72 3.792-3.72 3.792h-2.256s-.072-5.928 6-5.928c3.072 0 5.832 1.968 5.832 5.448 0 3.216-2.688 5.28-5.808 8.16l-2.448 2.256h8.64v2.136zm9.297.24c-4.56 0-6.648-3.792-6.648-8.112 0-4.416 2.184-10.128 8.688-10.128 1.512 0 2.808.36 2.808.36v2.16s-1.512-.36-2.856-.36c-4.872 0-6.12 4.248-6.216 6.312.36-.576 1.56-2.112 4.416-2.112 3.912 0 5.88 2.928 5.88 5.88 0 3-2.016 6-6.072 6zm-.048-2.016c1.92 0 3.84-1.296 3.84-3.912 0-2.64-1.92-3.936-3.84-3.936s-3.84 1.296-3.84 3.936c0 2.616 1.92 3.912 3.84 3.912z"/><path fill="#EDE9FE" d="M574.78 364.132h-.98v-7.4h.98v7.4zm2.348 0h-.95v-5.3h.95v.77h.06c.13-.24.54-.87 1.49-.87 1.16 0 1.83.87 1.83 1.99v3.41h-.95v-3.35c0-.7-.4-1.23-1.15-1.23-.9 0-1.28.77-1.28 1.59v2.99zm6.983-5.4c1 0 1.48.57 1.71.94h.06v-.84h.95v5.3h-.95v-.84h-.06c-.23.38-.71.94-1.71.94-1.61 0-2.4-1.39-2.4-2.75s.79-2.75 2.4-2.75zm.16.81c-1.07 0-1.6.97-1.6 1.94s.53 1.94 1.6 1.94c1.06 0 1.59-.97 1.59-1.94s-.53-1.94-1.59-1.94zm6.366 4.69c-1.74 0-2.61-1.39-2.61-2.75 0-1.35.86-2.75 2.61-2.75 2.12 0 2.32 1.9 2.32 1.9h-.92s-.17-1.08-1.4-1.08c-1.11 0-1.67.93-1.67 1.93 0 1 .56 1.93 1.67 1.93 1.23 0 1.4-1.08 1.4-1.08h.92s-.2 1.9-2.32 1.9zm5.772 0c-1.09 0-1.65-.59-1.65-1.6v-3.02h-.95v-.78h.95v-1.33h.95v1.33h1.29v.78h-1.29v3.02c0 .54.3.77.86.77.29 0 .62-.06.62-.06v.81s-.36.08-.78.08zm2.548-6.41c-.36 0-.62-.28-.62-.61 0-.34.26-.62.62-.62.35 0 .62.28.62.62 0 .34-.27.61-.62.61zm.48 6.31h-.95v-5.3h.95v5.3zm4.116 0h-1.01l-2.02-5.3h.99l1.55 4.14 1.52-4.14h1l-2.03 5.3zm5.197.1c-1.73 0-2.51-1.4-2.51-2.75 0-1.34.77-2.75 2.47-2.75 1.35 0 2.32.93 2.32 2.76v.28h-3.83c.05.91.61 1.65 1.55 1.65 1.08 0 1.33-.9 1.33-.9h.89s-.3 1.71-2.22 1.71zm-1.54-3.2h2.89c-.05-1.03-.69-1.49-1.39-1.49-.84 0-1.41.59-1.5 1.49z"/><rect width="206" height="8" x="470" y="199.132" fill="#fff" fill-opacity=".08" rx="4"/><path stroke="url(#t)" stroke-opacity=".9" stroke-width="1.5" d="M843.5 338.132v44c0 8.836-7.163 16-16 16H772"/><path fill="#3F3BF2" d="M746 236.132a69.996 69.996 0 0 1 67.324 50.83 69.999 69.999 0 0 1-30.451 78.671l-11.062-17.85A48.999 48.999 0 0 0 746 257.132v-21z"/><mask id="v" fill="#fff"><path d="M746 236.132a69.996 69.996 0 0 1 67.324 50.83 69.999 69.999 0 0 1-30.451 78.671l-11.062-17.85A48.999 48.999 0 0 0 746 257.132v-21z"/></mask><path fill="#3F3BF2" stroke="url(#u)" stroke-opacity=".3" stroke-width="2" d="M746 236.132a69.996 69.996 0 0 1 67.324 50.83 69.999 69.999 0 0 1-30.451 78.671l-11.062-17.85A48.999 48.999 0 0 0 746 257.132v-21z" mask="url(#v)"/><path fill="#818CF8" d="M785.317 364.047a70.002 70.002 0 0 1-106.42-37.984 70.01 70.01 0 0 1 1.05-43.106l19.816 6.953a48.999 48.999 0 0 0 73.759 56.763l11.795 17.374z"/><path fill="#A5B4FC" d="M679.433 284.478a70.028 70.028 0 0 1 9.95-19.511l16.985 12.35a49.001 49.001 0 0 0-6.965 13.657l-19.97-6.496z"/><path fill="#C7D2FE" d="M689.42 264.916a70.003 70.003 0 0 1 57.215-28.781l-.19 20.999a49 49 0 0 0-40.051 20.147l-16.974-12.365z"/><rect width="32" height="8" x="730" y="316.132" fill="#fff" fill-opacity=".1" rx="4"/><path fill="#DDD6FE" d="M735.778 307.311c-.843 0-1.595-.145-2.256-.435-.656-.29-1.178-.692-1.566-1.208a3.244 3.244 0 0 1-.626-1.809h1.61a1.9 1.9 0 0 0 .435 1.093c.256.303.59.537 1.004.703.413.166.871.25 1.374.25.562 0 1.061-.098 1.496-.294a2.454 2.454 0 0 0 1.022-.819c.247-.349.371-.754.371-1.214 0-.482-.119-.906-.358-1.272-.239-.371-.588-.661-1.048-.869-.46-.209-1.023-.314-1.688-.314H734.5v-1.406h1.048c.52 0 .976-.094 1.368-.281.397-.188.705-.452.927-.793.226-.341.339-.741.339-1.202 0-.443-.098-.828-.294-1.156a2.012 2.012 0 0 0-.831-.768c-.354-.183-.771-.274-1.253-.274a3.3 3.3 0 0 0-1.278.249 2.375 2.375 0 0 0-.972.709 1.85 1.85 0 0 0-.409 1.113h-1.534a3.114 3.114 0 0 1 .62-1.803c.388-.52.895-.925 1.521-1.214a4.914 4.914 0 0 1 2.078-.435c.809 0 1.504.164 2.083.492a3.46 3.46 0 0 1 1.336 1.285c.311.533.467 1.108.467 1.726 0 .737-.194 1.366-.582 1.885-.383.52-.905.88-1.566 1.081v.102c.827.136 1.472.488 1.937 1.055.464.562.697 1.259.697 2.09 0 .712-.194 1.351-.582 1.917-.383.563-.908 1.006-1.572 1.33-.665.324-1.422.486-2.27.486zm11.1-13.27v13.091h-1.585v-11.429h-.077l-3.196 2.122v-1.611l3.273-2.173h1.585zm2.918 10.406v-1.304l5.753-9.102h.946v2.02h-.639l-4.347 6.878v.102h7.748v1.406h-9.461zm6.162 2.685v-13.091h1.509v13.091h-1.509z"/></g><rect width="393.721" height="249.721" x="449.64" y="147.771" stroke="url(#w)" stroke-opacity=".2" stroke-width="1.279" rx="15.361"/></g><defs><linearGradient id="a" x1="657" x2="657" y1=".132" y2="705.043" gradientUnits="userSpaceOnUse"><stop stop-color="#fff"/><stop offset="1" stop-color="#fff" stop-opacity="0"/></linearGradient><linearGradient id="e" x1="635" x2="635" y1="323.082" y2="608.606" gradientUnits="userSpaceOnUse"><stop stop-color="#070119" stop-opacity="0"/><stop offset="1" stop-color="#070119"/></linearGradient><linearGradient id="h" x1="80.5" x2="282.619" y1="114.132" y2="114.132" gradientUnits="userSpaceOnUse"><stop stop-color="#3F3BF2" stop-opacity="0"/><stop offset=".488" stop-color="#3F3BF2"/><stop offset="1" stop-color="#3F3BF2" stop-opacity="0"/></linearGradient><linearGradient id="i" x1="312.001" x2="385.993" y1="269.636" y2="201.624" gradientUnits="userSpaceOnUse"><stop stop-color="#3F3BF2" stop-opacity="0"/><stop offset=".4" stop-color="#3F3BF2"/><stop offset="1" stop-color="#3F3BF2" stop-opacity="0"/></linearGradient><linearGradient id="k" x1="233.5" x2="233.5" y1="113.132" y2="271.132" gradientUnits="userSpaceOnUse"><stop stop-color="#fff"/><stop offset="1" stop-color="#fff" stop-opacity=".59"/></linearGradient><linearGradient id="m" x1="932.5" x2="1129.23" y1="71.132" y2="71.132" gradientUnits="userSpaceOnUse"><stop stop-color="#3F3BF2" stop-opacity="0"/><stop offset=".488" stop-color="#3F3BF2"/><stop offset="1" stop-color="#3F3BF2" stop-opacity="0"/></linearGradient><linearGradient id="n" x1="1097" x2="1170.99" y1="226.636" y2="158.624" gradientUnits="userSpaceOnUse"><stop stop-color="#3F3BF2" stop-opacity="0"/><stop offset=".4" stop-color="#3F3BF2"/><stop offset="1" stop-color="#3F3BF2" stop-opacity="0"/></linearGradient><linearGradient id="p" x1="1044" x2="1044" y1="70.132" y2="228.132" gradientUnits="userSpaceOnUse"><stop stop-color="#fff"/><stop offset="1" stop-color="#fff" stop-opacity=".59"/></linearGradient><linearGradient id="s" x1="474" x2="756.068" y1="148.132" y2="148.132" gradientUnits="userSpaceOnUse"><stop stop-color="#3F3BF2" stop-opacity="0"/><stop offset=".488" stop-color="#3F3BF2"/><stop offset="1" stop-color="#3F3BF2" stop-opacity="0"/></linearGradient><linearGradient id="t" x1="769.501" x2="843.493" y1="398.136" y2="330.124" gradientUnits="userSpaceOnUse"><stop stop-color="#3F3BF2" stop-opacity="0"/><stop offset=".4" stop-color="#3F3BF2"/><stop offset="1" stop-color="#3F3BF2" stop-opacity="0"/></linearGradient><linearGradient id="u" x1="761.5" x2="763" y1="239.132" y2="256.132" gradientUnits="userSpaceOnUse"><stop stop-color="#fff"/><stop offset=".956" stop-color="#fff" stop-opacity="0"/></linearGradient><linearGradient id="w" x1="646.5" x2="646.5" y1="147.132" y2="398.132" gradientUnits="userSpaceOnUse"><stop stop-color="#fff"/><stop offset="1" stop-color="#fff" stop-opacity=".59"/></linearGradient><clipPath id="b"><rect width="807" height="405" x="309" y="280.132" fill="#fff" rx="6"/></clipPath><clipPath id="c"><path fill="#fff" d="M269 175.132h16v16h-16z"/></clipPath><clipPath id="d"><path fill="#fff" d="M352 113.132h8v8h-8z"/></clipPath><clipPath id="g"><rect width="306" height="158" x="80.5" y="113.132" fill="#fff" rx="16"/></clipPath><clipPath id="j"><path fill="#fff" d="M155.5 241.132h12v12h-12z"/></clipPath><clipPath id="l"><rect width="255" height="158" x="916.5" y="70.132" fill="#fff" rx="16"/></clipPath><clipPath id="o"><path fill="#fff" d="M1141.5 177.132h12v12h-12z"/></clipPath><clipPath id="r"><rect width="395" height="251" x="449" y="147.132" fill="#fff" rx="16"/></clipPath><filter id="f" width="500.418" height="352.418" x="-16.709" y="102.899" color-interpolation-filters="sRGB" filterUnits="userSpaceOnUse"><feFlood flood-opacity="0" result="BackgroundImageFix"/><feColorMatrix in="SourceAlpha" result="hardAlpha" values="0 0 0 0 0 0 0 0 0 0 0 0 0 0 0 0 0 0 127 0"/><feOffset dy="86.977"/><feGaussianBlur stdDeviation="48.605"/><feComposite in2="hardAlpha" operator="out"/><feColorMatrix values="0 0 0 0 0.247059 0 0 0 0 0.231373 0 0 0 0 0.94902 0 0 0 0.3 0"/><feBlend in2="BackgroundImageFix" result="effect1_dropShadow_134_2549"/><feColorMatrix in="SourceAlpha" result="hardAlpha" values="0 0 0 0 0 0 0 0 0 0 0 0 0 0 0 0 0 0 127 0"/><feOffset dy="5.116"/><feGaussianBlur stdDeviation="3.198"/><feComposite in2="hardAlpha" operator="out"/><feColorMatrix values="0 0 0 0 0.247059 0 0 0 0 0.231373 0 0 0 0 0.94902 0 0 0 0.12 0"/><feBlend in2="effect1_dropShadow_134_2549" result="effect2_dropShadow_134_2549"/><feBlend in="SourceGraphic" in2="effect2_dropShadow_134_2549" result="shape"/></filter><filter id="q" width="589.418" height="445.418" x="351.791" y="136.899" color-interpolation-filters="sRGB" filterUnits="userSpaceOnUse"><feFlood flood-opacity="0" result="BackgroundImageFix"/><feColorMatrix in="SourceAlpha" result="hardAlpha" values="0 0 0 0 0 0 0 0 0 0 0 0 0 0 0 0 0 0 127 0"/><feOffset dy="86.977"/><feGaussianBlur stdDeviation="48.605"/><feComposite in2="hardAlpha" operator="out"/><feColorMatrix values="0 0 0 0 0.247059 0 0 0 0 0.231373 0 0 0 0 0.94902 0 0 0 0.3 0"/><feBlend in2="BackgroundImageFix" result="effect1_dropShadow_134_2549"/><feColorMatrix in="SourceAlpha" result="hardAlpha" values="0 0 0 0 0 0 0 0 0 0 0 0 0 0 0 0 0 0 127 0"/><feOffset dy="5.116"/><feGaussianBlur stdDeviation="3.198"/><feComposite in2="hardAlpha" operator="out"/><feColorMatrix values="0 0 0 0 0.247059 0 0 0 0 0.231373 0 0 0 0 0.94902 0 0 0 0.12 0"/><feBlend in2="effect1_dropShadow_134_2549" result="effect2_dropShadow_134_2549"/><feBlend in="SourceGraphic" in2="effect2_dropShadow_134_2549" result="shape"/></filter></defs></svg>